<svg xmlns="http://www.w3.org/2000/svg" width="208" height="206" fill="none" viewBox="0 0 208 206">
    <path fill="#0E0C08" d="M100.245 71.264c29.79 0 48.506 6.794 50.567 11.64.225.388.336.831.322 1.28-.014.448-.153.883-.402 1.256-2.264 3.397-12.783 7.349-50.475 7.349-21.14 0-49.355-1.133-50.397-10.995.012-.235.072-.466.175-.678.103-.212.248-.4.426-.556 4.053-4.529 22.882-9.284 49.818-9.284l-.034-.011zm.034-2.253c-29.11-.011-53.43 5.854-52.683 13.01 1.132 10.756 23.573 13.02 52.649 13.02s57.179-2.264 52.65-13.02C150.11 75.397 129.321 69 100.245 69l.034.011z"/>
    <path fill="#0E0C08" d="M101.457 75.794c18.263 0 29.291 2.06 32.835 3.544-2.638.86-10.338 2.117-32.835 2.117-10.643 0-18.116-.26-23.642-.838-5.197-.543-7.688-1.29-8.865-1.823 4.03-1.392 16.01-3 32.507-3zm0-2.265c-19.735 0-36.232 2.265-35.734 5.095.77 4.212 15.999 5.096 35.734 5.096s38.813-.884 35.733-5.096c-1.89-2.592-15.998-5.095-35.733-5.095z"/>
    <path stroke="#0E0C08" stroke-linejoin="round" stroke-width="2" d="M71.373 93.785c.208 15.241-2.882 30.347-9.058 44.282-7.495 16.645 78.125 18.116 80.39 2.265 1.132-7.846-12.455-32.654-9.058-47.464M71.373 101.631s36.232 9.262 61.141-.725"/>
    <path stroke="#0E0C08" stroke-linejoin="round" stroke-width="2" d="M82.695 150.521s-10.28 7.269-5.66 7.926c15.85 2.264 41.892-4.529 60.008 27.174 4.156 7.258 8.515 3.227 6.794-1.472-2.265-6.454-7.926-13.247-7.926-13.247s6.794 7.925 8.571 14.379c1.133 3.997 5.016 8.266 8.413 4.869 3.578-3.578-12.455-23.777-12.455-23.777s7.926 9.058 11.991 17.176c.561 1.189 1.419 2.213 2.492 2.973 1.074.76 2.325 1.229 3.633 1.363 4.167 0 4.337-3.793 1.665-8.344-4.009-6.862-12.987-15.433-12.987-15.433 1.381-.147 12.896 15.569 15.851 14.719 7.926-2.264.215-10.62-5.582-15.545-3.607-3.002-7.417-5.753-11.402-8.232 0 0 16.984 6.465 16.984-1.132 0-2.265-5.457-4.529-13.077-6.092-4.281-.87-8.61-1.483-12.965-1.834"/>
    <path stroke="#0E0C08" stroke-linejoin="round" stroke-width="2" d="M91.754 159.58s10.19 6.205 10.19 23.777c0 5.662 3.397 6.794 5.661 4.529 5.775-5.774-1.132-18.116 1.133-15.851 1.302 1.302 4.404 6.205 6.555 12.228 2.503 7.02 2.265 10.304 4.767 11.549 2.989 1.495 5.842-1.449 5.367-4.427-.985-6.058-6.443-15.852-5.367-13.689 1.076 2.163 5.661 15.852 10.19 19.248 2.129 1.597 4.654-.951 3.114-5.287-1.71-4.903-7.643-13.961-7.643-13.961s4.144 6.193 6.137 10.032c1.597 3.079 3.997 7.223 7.45 8.084 2.695.668 2.582-2.593 2.05-4.427-.242-.812-.549-1.603-.917-2.366"/>
    <path fill="#B49864" stroke="#0E0C08" stroke-width="2" d="M92.952 72.23c-2.39 3.294-6.253 4.112-8.563 2.437-2.31-1.676-2.731-5.602-.341-8.896 2.39-3.295 6.252-4.112 8.562-2.437 2.31 1.676 2.732 5.601.342 8.896zM107.187 22.292c-3.753 1.394-7.534-.18-8.634-3.14-1.1-2.962.739-6.622 4.491-8.016 3.752-1.393 7.534.18 8.633 3.142 1.1 2.96-.738 6.621-4.49 8.014z"/>
    <path stroke="#0E0C08" stroke-width="2" d="M112.104 57.016c.037 2.088-.353 3.937-.969 5.23-.644 1.355-1.373 1.813-1.887 1.822-.514.01-1.259-.423-1.952-1.754-.66-1.27-1.116-3.104-1.154-5.191-.037-2.088.354-3.937.969-5.23.644-1.355 1.373-1.813 1.887-1.822.514-.01 1.26.423 1.952 1.754.661 1.27 1.117 3.103 1.154 5.191zM108 83c0-4.418-2.91-8-6.5-8S95 78.582 95 83"/>
    <path fill="#B49864" stroke="#0E0C08" stroke-width="2" d="M101.799 38.528c1.089 3.921-.676 7.453-3.426 8.216-2.75.764-6.083-1.35-7.173-5.272-1.089-3.922.677-7.453 3.426-8.217 2.75-.764 6.084 1.351 7.173 5.273z"/>
</svg>
