<svg xmlns="http://www.w3.org/2000/svg">
  <symbol xmlns="http://www.w3.org/2000/svg" viewBox="0 0 27.442 27.442" id="phone">
    <path d="M19.494 0H7.948a1.997 1.997 0 00-1.997 1.999v23.446c0 1.102.892 1.997 1.997 1.997h11.546a1.998 1.998 0 001.997-1.997V1.999A1.999 1.999 0 0019.494 0zm-8.622 1.214h5.7c.144 0 .261.215.261.481s-.117.482-.261.482h-5.7c-.145 0-.26-.216-.26-.482s.115-.481.26-.481zm2.85 24.255a1.275 1.275 0 110-2.55 1.275 1.275 0 010 2.55zm6.273-4.369H7.448V3.373h12.547V21.1z"></path>
  </symbol>
  <symbol xmlns="http://www.w3.org/2000/svg" viewBox="0 0 512 512" id="mail">
    <path d="M0 96.791v325.931l147.691-193.131zm364.309 132.781L512 422.724V96.794zm-83.187 17.425L484.663 64H27.341l203.435 182.912c14.421 13.099 36.031 13.099 50.346.085z"></path>
    <path d="M309.73 278.635c-15.275 13.909-34.475 20.864-53.696 20.864-19.243 0-38.507-6.976-53.867-20.949l-22.635-20.352L34.381 448h443.243L332.471 258.197l-22.741 20.438z"></path>
  </symbol>
  <symbol xmlns="http://www.w3.org/2000/svg" viewBox="0 0 512 512" id="pin">
    <path d="M256 0C153.755 0 70.573 83.182 70.573 185.426c0 126.888 165.939 313.167 173.004 321.035 6.636 7.391 18.222 7.378 24.846 0 7.065-7.868 173.004-194.147 173.004-321.035C441.425 83.182 358.244 0 256 0zm0 278.719c-51.442 0-93.292-41.851-93.292-93.293S204.559 92.134 256 92.134s93.291 41.851 93.291 93.293-41.85 93.292-93.291 93.292z"></path>
  </symbol>
</svg>
