<svg xmlns="http://www.w3.org/2000/svg" width="32" height="32" fill="none" viewBox="0 0 32 32">
    <path fill="#B6B6B4" d="M20.536 28v-9.288h3.11l.466-3.61h-3.576v-2.305c0-1.045.29-1.758 1.79-1.758h1.911v-3.23c-.925-.098-1.855-.146-2.786-.142-2.756 0-4.643 1.682-4.643 4.773v2.661h-3.117v3.611h3.117V28H5.333c-.353 0-.692-.14-.942-.39S4 27.02 4 26.666V5.333c0-.353.14-.692.39-.942S4.98 4 5.334 4h21.334c.353 0 .692.14.942.39s.391.59.391.943v21.334c0 .353-.14.692-.39.942s-.59.391-.943.391h-6.131z"/>
</svg>
