<svg width="0" height="0" class="hidden">
  <symbol xmlns="http://www.w3.org/2000/svg" viewBox="0 0 36.293 36.292" id="list-grid">
    <path d="M7.984 15.654v4.985c0 .827-.672 1.5-1.5 1.5H1.5c-.828 0-1.5-.673-1.5-1.5v-4.985a1.5 1.5 0 011.5-1.5h4.984c.828 0 1.5.673 1.5 1.5zm26.808-1.5H12.508a1.5 1.5 0 00-1.5 1.5v4.985c0 .827.673 1.5 1.5 1.5h22.285c.828 0 1.5-.673 1.5-1.5v-4.985a1.502 1.502 0 00-1.501-1.5zM6.484 2.779H1.5a1.5 1.5 0 00-1.5 1.5v4.985a1.5 1.5 0 001.5 1.5h4.984a1.5 1.5 0 001.5-1.5V4.279c0-.827-.672-1.5-1.5-1.5zm28.308 0H12.508a1.5 1.5 0 00-1.5 1.5v4.985a1.5 1.5 0 001.5 1.5h22.285a1.5 1.5 0 001.5-1.5V4.279a1.502 1.502 0 00-1.501-1.5zM6.484 25.53H1.5a1.5 1.5 0 00-1.5 1.5v4.984c0 .83.672 1.5 1.5 1.5h4.984a1.5 1.5 0 001.5-1.5V27.03a1.5 1.5 0 00-1.5-1.5zm28.308 0H12.508a1.5 1.5 0 00-1.5 1.5v4.984c0 .83.673 1.5 1.5 1.5h22.285a1.5 1.5 0 001.5-1.5V27.03a1.5 1.5 0 00-1.501-1.5z"></path>
  </symbol>
</svg>
