<svg width="0" height="0" class="hidden">
  <symbol xmlns="http://www.w3.org/2000/svg" viewBox="0 0 512 512" id="mona">
    <path d="M444.581 0H67.419c-8.284 0-15 6.716-15 15v482c0 8.284 6.716 15 15 15h377.162c8.284 0 15-6.716 15-15V15c0-8.284-6.716-15-15-15z" fill="#995231"></path>
    <path d="M248.529 0H67.419c-8.284 0-15 6.716-15 15v482c0 8.284 6.716 15 15 15h181.11V0z" fill="#c77d3c"></path>
    <path d="M391.834 56.169H120.166c-5.522 0-10 4.477-10 10v379.662c0 5.523 4.478 10 10 10h271.668c5.522 0 10-4.477 10-10V66.169c0-5.523-4.478-10-10-10z" fill="#f0b400"></path>
    <path d="M248.529 56.169H120.166c-5.522 0-10 4.477-10 10v379.662c0 5.523 4.478 10 10 10h128.363V56.169z" fill="#ffd23d"></path>
    <path d="M401.834 233.447V66.169c0-5.523-4.478-10-10-10H120.166c-5.522 0-10 4.477-10 10v167.278h291.668z" fill="#aee3e8"></path>
    <path d="M248.529 56.169H120.166c-5.522 0-10 4.477-10 10v167.278h138.363V56.169z" fill="#dbf9ff"></path>
    <path d="M328.376 245.73l-13.393-69.826c-2.714-14.148-5.313-28.476-10.122-41.355-6.685-17.902-17.648-33-39.199-40.877-23.605-8.629-52.382-2.06-68.863 16.915-8.607 9.909-13.673 22.386-17.549 34.926-10.432 33.755-17.519 125.401-17.519 125.401-9.609.687-19.018 2.177-27.925 8.042-14.623 9.628-23.64 26.285-23.64 43.797v123.079c0 5.523 4.478 10 10 10h271.668c5.522 0 10-4.477 10-10V315.408l-73.458-69.678z" fill="#141f24"></path>
    <path d="M248.529 90.079c-19.223-1.299-39.092 5.956-51.73 20.507-8.607 9.909-13.673 22.386-17.549 34.926-10.432 33.755-17.519 125.401-17.519 125.401-9.609.687-19.018 2.177-27.925 8.042-14.623 9.628-23.64 26.285-23.64 43.797v123.079c0 5.523 4.478 10 10 10h128.363V90.079z" fill="#295561"></path>
    <path d="M400.958 308.018c-2.257-5.04-8.171-7.298-13.214-5.039-34.12 15.282-63.904 39.25-86.133 69.314l-17.346 23.461c-3.283 4.441-2.345 10.703 2.096 13.986a9.958 9.958 0 005.938 1.959 9.986 9.986 0 008.049-4.056l17.346-23.46a197.651 197.651 0 0125.295-28.109l.686-.618c15.453-14.049 33.094-25.647 52.246-34.225 5.039-2.256 7.295-8.173 5.037-13.213z" fill="#ff9b30"></path>
    <path d="M289.829 258.822s-1.39-41.275-1.5-44.311c-.913-25.297-1.351-52.272-13.338-75.227-7.133-13.659-18.838-25.454-33.54-30.069-21.799-6.843-43.355 5.395-52.482 25.51-6.152 13.56-7.603 29.981-4.088 46.239s11.623 30.613 22.828 40.419c5.143 4.501 10.675 7.826 16.387 9.935a24.189 24.189 0 01-10.585 15.524l-.21.135c-15.968 10.233-28.662 24.833-36.079 42.288l-3.184 7.495 28.19 31.628 62.569 10.314 28.811-18.376-3.779-61.504z" fill="#ffd23d"></path>
    <path d="M248.529 112.087a47.428 47.428 0 00-7.077-2.873c-21.799-6.843-43.355 5.395-52.482 25.51-6.152 13.56-7.603 29.981-4.088 46.239s11.623 30.613 22.828 40.419c5.143 4.501 10.675 7.826 16.387 9.935a24.189 24.189 0 01-10.585 15.524l-.21.135c-15.968 10.233-28.662 24.833-36.079 42.288l-3.184 7.495 28.19 31.628 42.298 6.972 4.001.66.001-223.932z" fill="#ffe280"></path>
    <path d="M266.013 329.377c-47.004 1.96-69.165-17.135-79.017-31.094l-1.092-1.918c-2.178-3.824-7.825-3.378-9.376.74l-1.462 3.881c-2.424 6.436-.952 13.7 3.816 18.657.63.655 1.281 1.311 1.953 1.964 13.309 12.956 37.576 27.907 78.678 27.907 2.26 0 4.572-.045 6.935-.139 5.358-.212 9.877-4.429 9.98-9.791a9.972 9.972 0 00-10.415-10.207z" fill="#c77d3c"></path>
    <path d="M192.33 276.323c-3.847-4.325-10.467-4.715-14.793-.87a62.05 62.05 0 00-20.371 53.836l.777 6.404c.697 5.745 5.919 9.837 11.663 9.141 5.744-.697 9.837-5.918 9.141-11.663l-.777-6.404a41.094 41.094 0 0113.489-35.651c4.326-3.845 4.716-10.468.871-14.793zm-7.302 90.906c-1.92-5.46-7.906-8.332-13.359-6.413-5.459 1.918-8.331 7.898-6.414 13.359l2.62 7.458c1.66 4.725 6.364 7.512 11.138 6.933.743-.09 1.487-.261 2.221-.519 5.459-1.918 8.331-7.898 6.414-13.359l-2.62-7.459z" fill="#ff9b30"></path>
    <path d="M312.724 421.409c-8.549-15.551-24.875-25.699-42.602-26.489l-48.895-2.176c-5.517-.245-10.189 4.028-10.435 9.546s4.029 10.189 9.546 10.435l48.895 2.176c10.804.48 20.755 6.667 25.966 16.145a9.974 9.974 0 006.157 4.837 9.963 9.963 0 007.424-.892c4.839-2.662 6.605-8.742 3.944-13.582z" fill="#ffd23d"></path>
    <path d="M248.534 393.96l-27.306-1.215c-5.517-.245-10.189 4.028-10.435 9.546-.246 5.518 4.029 10.189 9.546 10.435l28.194 1.255.001-20.021z" fill="#ffe280"></path>
    <path d="M363.18 271.179c-2.257-5.04-8.171-7.298-13.214-5.039-34.12 15.282-63.904 39.25-86.133 69.314l-17.346 23.461c-3.283 4.441-2.345 10.703 2.096 13.986a9.958 9.958 0 005.938 1.959 9.986 9.986 0 008.049-4.056l17.346-23.46a197.651 197.651 0 0125.295-28.109l.686-.618c15.453-14.049 33.094-25.647 52.246-34.225 5.039-2.256 7.295-8.173 5.037-13.213z" fill="#ff9b30"></path>
  </symbol>
</svg>
