<svg xmlns="http://www.w3.org/2000/svg">
  <symbol xmlns="http://www.w3.org/2000/svg" viewBox="0 -31 512 512" id="trustee">
    <path d="M211 240h90v30h-90zm0 0"></path>
    <path d="M415.379 270H331v15c0 8.29-6.71 15-15 15H196c-8.29 0-15-6.71-15-15v-15H96.621a44.95 44.95 0 01-42.687-30.762L0 77.41V405c0 24.813 20.188 45 45 45h422c24.813 0 45-20.188 45-45V77.422l-53.938 161.816A44.94 44.94 0 01415.38 270zm0 0"></path>
    <path d="M316 0H196c-24.813 0-45 20.188-45 45v15H25.809l56.574 169.746A14.997 14.997 0 0096.62 240H181v-15c0-8.29 6.71-15 15-15h120c8.29 0 15 6.71 15 15v15h84.379c6.46 0 12.187-4.117 14.238-10.254L486.195 60H361V45c0-24.813-20.187-45-45-45zM181 60V45c0-8.277 6.723-15 15-15h120c8.277 0 15 6.723 15 15v15zm0 0"></path>
  </symbol>
  <symbol xmlns="http://www.w3.org/2000/svg" viewBox="0 0 512 512" id="donate">
    <path d="M47.054 302h-32c-8.291 0-15 6.709-15 15v180c0 8.291 6.709 15 15 15h32c24.814 0 45-20.186 45-45V347c0-24.814-20.185-45-45-45zm460.5 29.099c-1.8-2.999-4.199-5.4-6.899-7.5-11.045-9.662-29.654-8.749-40.499 3.001l-68.101 78.6-2.1 2.399c-8.399 9.3-20.4 14.401-32.999 14.401h-116.4c-8.401 0-15-6.601-15-15 0-8.401 6.599-15 15-15h91.5c16.5 0 30-13.5 30-30v-.3c-.3-16.5-13.5-29.7-30-29.7h-54.3c-8.996 0-18.636-3.303-26.4-9.901-36.599-32.1-90-34.2-129.3-6.899v184.499c29.7 8.101 60.3 12.301 91.199 12.301h133.801c32.999 0 64.2-15.601 84-42.001l72.001-96c10.503-13.789 11.295-32.699 4.497-42.9zM402.264 28.995C385.627 10.297 362.564 0 337.324 0c-28.172 0-52.593 13.321-70.622 38.522a120.814 120.814 0 00-3.802 5.649 119.486 119.486 0 00-3.801-5.649C241.07 13.321 216.649 0 188.477 0c-25.24 0-48.303 10.297-64.939 28.994-15.788 17.744-24.484 41.465-24.484 66.794 0 27.525 10.681 52.924 33.611 79.934 20.009 23.565 48.708 47.788 81.938 75.836 12.28 10.365 24.979 21.083 38.473 32.778a14.968 14.968 0 009.824 3.665 14.97 14.97 0 009.824-3.665c13.492-11.693 26.189-22.41 38.469-32.773 21.342-18.014 39.773-33.57 55.767-48.66 31.053-29.298 59.787-62.553 59.787-107.114 0-25.329-8.695-49.05-24.483-66.794z"></path>
  </symbol>
</svg>

