<svg width="0" height="0" class="hidden">
  <symbol id="ucf" viewBox="0 0 496 279" xmlns="http://www.w3.org/2000/svg">
    <path d="M130.5 9.1c1.3 10.6 1.1 96.7-.3 109.4-3.6 32.6-9.5 45.9-21.8 49-9.8 2.5-17.7-1.8-23.1-12.6-9-17.8-13-58.1-11.2-113.9.5-16.2 1.1-31 1.4-32.8l.6-3.2H62.7c-13.1 0-13.5.1-14.1 2.2-1.3 4.8-1.9 79.2-.7 95.8 3 42.4 7.8 60.5 19.3 72.6 8.6 9.1 19.7 13.4 34.9 13.4 39.6.1 54.3-25.5 56.5-98.3.5-17-.9-84.4-1.8-85.2-.1-.1-6.3-.6-13.6-1l-13.4-.7.7 5.3zM183 7.2c0 1.8-1.6 58.9-3.5 126.8S176 261.2 176 265.7v8.3h27.7l.6-15.7c.4-8.7.7-23.2.7-32.3 0-9.1.3-20.2.6-24.7l.7-8.1 6.2-1.1c19.3-3.4 32.9 8.7 39.3 34.9 2.6 10.4 4.2 24.8 4.2 37v9h27.3l-.6-14.2c-.7-16.6-3.5-30.3-9.6-48.8-4.7-14.1-6.5-17.4-13.6-24.9-5.5-5.8-13.3-10.3-22.2-12.6-6.3-1.7-21.6-2-27.7-.6l-3.8.9.6-21.6c.4-11.9.9-24.3 1.2-27.4l.6-5.7 5.6-1.1c20.9-4.1 38.4-16 50.4-34.2 12-18 21.1-45.8 23.4-71.1l.6-7.7h-26.9l-.7 5.2c-.3 2.9-.6 7.2-.6 9.4 0 12.3-5.1 31.7-11.8 45.4-7.8 16-22.6 28.9-36.1 31.6l-3.4.7.6-17.9c.4-9.8 1-30.6 1.3-46.2l.7-28.2H183v3.2zm174.6 1.4c-.3 2.6-.6 6-.6 7.5 0 2.7-.2 2.9-4.2 2.9-6.8 0-17.8 2.7-24.4 6-19.7 9.7-31.9 34.5-36.6 74.5-1.9 16.8-1.7 68.8.5 84.1 4.2 30 12.2 49.2 25.6 61.6 8.7 8.1 16.4 11.3 31.4 13.3l4.7.6V277h27v-18.5l7.1-.2c33.7-.8 53.3-26.1 59.9-77.3 1.8-13.9 2.3-48.1 1.1-66.7-3.8-58.2-19.4-87.2-50.6-93.8-3.8-.8-8.2-1.5-9.7-1.5H386V4h-27.7l-.7 4.6zm-1.5 113.3c-.6 43.2-1.1 86.8-1.1 96.8 0 20.8.4 20.1-8.5 15.9-12.8-6.1-20.7-20.9-25.2-47.2-1.5-9.3-1.8-16.6-1.8-49.9 0-33.6.3-40.4 1.9-49 4.4-24 11.3-37.7 22.1-44.1 5.4-3.1 12.9-4.6 13.3-2.6.2.8-.1 36.8-.7 80.1zm38.7-78.3c12.3 6.1 20.5 22.7 24.4 49.2 2.1 13.9 1.7 80.7-.5 94.1-3.2 19.5-8.2 32.4-16 40.8-4.7 5.1-12.5 9.3-17.4 9.3H382v-9.3c0-5 .7-44.3 1.5-87.2.8-42.9 1.5-82.8 1.5-88.8 0-10.5 0-10.7 2.3-10.7 1.3 0 4.6 1.2 7.5 2.6zM83.3 199.9c-14.1 5.2-21.6 15.4-23 31.1-1.5 17.9 6.6 33.5 21.4 41.3 9.3 4.8 17.2 6.7 28.8 6.7 8.2 0 10.4-.4 15-2.5 6.3-3 12.6-8.9 15.4-14.4 3.3-6.4 4.6-16.8 3.2-25.3-3.7-22.7-20.2-35.7-48.6-38.2-5.5-.4-8.1-.2-12.2 1.3zm28.7 25.7c5.2 3 7.2 6.4 7.7 13.6.5 6.2.4 6.6-2.6 10.1-4 4.5-8.8 6.1-15.8 5.4-10.9-1.1-16.3-6.9-16.3-17.5 0-6.2.2-6.6 4-10.4l4-4.1 7.9.5c5.2.3 8.9 1.1 11.1 2.4z"></path>
  </symbol>

  <symbol id="facebook" viewBox="0 0 42 42" xmlns="http://www.w3.org/2000/svg">
    <path d="M42 21C42 9.4 32.6 0 21 0S0 9.4 0 21s9.4 21 21 21c.123 0 .246 0 .37-.008v-16.34h-4.513v-5.259h4.512v-3.872c0-4.487 2.74-6.932 6.743-6.932 1.92 0 3.569.14 4.044.206v4.692H29.4c-2.174 0-2.6 1.033-2.6 2.55v3.348h5.209l-.681 5.258H26.8v15.545C35.577 38.669 42 30.589 42 21z" fill="#3b5998"></path>
  </symbol>

  <symbol id="eye" viewBox="0 0 24 24" xmlns="http://www.w3.org/2000/svg">
    <path d="M0 0h24v24H0z" fill="none"/>
    <path d="M12 4.5C7 4.5 2.73 7.61 1 12c1.73 4.39 6 7.5 11 7.5s9.27-3.11 11-7.5c-1.73-4.39-6-7.5-11-7.5zM12 17c-2.76 0-5-2.24-5-5s2.24-5 5-5 5 2.24 5 5-2.24 5-5 5zm0-8c-1.66 0-3 1.34-3 3s1.34 3 3 3 3-1.34 3-3-1.34-3-3-3z"/>
  </symbol>

  <symbol id="eye-off" viewBox="0 0 24 24" xmlns="http://www.w3.org/2000/svg">
    <path d="M0 0h24v24H0zm0 0h24v24H0zm0 0h24v24H0zm0 0h24v24H0z" fill="none"/>
    <path d="M12 7c2.76 0 5 2.24 5 5 0 .65-.13 1.26-.36 1.83l2.92 2.92c1.51-1.26 2.7-2.89 3.43-4.75-1.73-4.39-6-7.5-11-7.5-1.4 0-2.74.25-3.98.7l2.16 2.16C10.74 7.13 11.35 7 12 7zM2 4.27l2.28 2.28.46.46C3.08 8.3 1.78 10.02 1 12c1.73 4.39 6 7.5 11 7.5 1.55 0 3.03-.3 4.38-.84l.42.42L19.73 22 21 20.73 3.27 3 2 4.27zM7.53 9.8l1.55 1.55c-.05.21-.08.43-.08.65 0 1.66 1.34 3 3 3 .22 0 .44-.03.65-.08l1.55 1.55c-.67.33-1.41.53-2.2.53-2.76 0-5-2.24-5-5 0-.79.2-1.53.53-2.2zm4.31-.78l3.15 3.15.02-.16c0-1.66-1.34-3-3-3l-.17.01z"/>
  </symbol>

  <symbol id="close" viewBox="0 0 24 24" xmlns="http://www.w3.org/2000/svg">
    <path d="M0 0h24v24H0z" fill="none"/>
    <path d="M19 6.41L17.59 5 12 10.59 6.41 5 5 6.41 10.59 12 5 17.59 6.41 19 12 13.41 17.59 19 19 17.59 13.41 12z"/>
  </symbol>

  <symbol id="trustee" viewBox="0 -31 512 512" xmlns="http://www.w3.org/2000/svg">
    <path d="M211 240h90v30h-90zm0 0"></path>
    <path d="M415.379 270H331v15c0 8.29-6.71 15-15 15H196c-8.29 0-15-6.71-15-15v-15H96.621a44.95 44.95 0 01-42.687-30.762L0 77.41V405c0 24.813 20.188 45 45 45h422c24.813 0 45-20.188 45-45V77.422l-53.938 161.816A44.94 44.94 0 01415.38 270zm0 0"></path>
    <path d="M316 0H196c-24.813 0-45 20.188-45 45v15H25.809l56.574 169.746A14.997 14.997 0 0096.62 240H181v-15c0-8.29 6.71-15 15-15h120c8.29 0 15 6.71 15 15v15h84.379c6.46 0 12.187-4.117 14.238-10.254L486.195 60H361V45c0-24.813-20.187-45-45-45zM181 60V45c0-8.277 6.723-15 15-15h120c8.277 0 15 6.723 15 15v15zm0 0"></path>
  </symbol>

  <symbol id="donate" viewBox="0 0 512 512" xmlns="http://www.w3.org/2000/svg">
    <path d="M47.054 302h-32c-8.291 0-15 6.709-15 15v180c0 8.291 6.709 15 15 15h32c24.814 0 45-20.186 45-45V347c0-24.814-20.185-45-45-45zm460.5 29.099c-1.8-2.999-4.199-5.4-6.899-7.5-11.045-9.662-29.654-8.749-40.499 3.001l-68.101 78.6-2.1 2.399c-8.399 9.3-20.4 14.401-32.999 14.401h-116.4c-8.401 0-15-6.601-15-15 0-8.401 6.599-15 15-15h91.5c16.5 0 30-13.5 30-30v-.3c-.3-16.5-13.5-29.7-30-29.7h-54.3c-8.996 0-18.636-3.303-26.4-9.901-36.599-32.1-90-34.2-129.3-6.899v184.499c29.7 8.101 60.3 12.301 91.199 12.301h133.801c32.999 0 64.2-15.601 84-42.001l72.001-96c10.503-13.789 11.295-32.699 4.497-42.9zM402.264 28.995C385.627 10.297 362.564 0 337.324 0c-28.172 0-52.593 13.321-70.622 38.522a120.814 120.814 0 00-3.802 5.649 119.486 119.486 0 00-3.801-5.649C241.07 13.321 216.649 0 188.477 0c-25.24 0-48.303 10.297-64.939 28.994-15.788 17.744-24.484 41.465-24.484 66.794 0 27.525 10.681 52.924 33.611 79.934 20.009 23.565 48.708 47.788 81.938 75.836 12.28 10.365 24.979 21.083 38.473 32.778a14.968 14.968 0 009.824 3.665 14.97 14.97 0 009.824-3.665c13.492-11.693 26.189-22.41 38.469-32.773 21.342-18.014 39.773-33.57 55.767-48.66 31.053-29.298 59.787-62.553 59.787-107.114 0-25.329-8.695-49.05-24.483-66.794z"></path>
  </symbol>

  <symbol id="list-grid" viewBox="0 0 36.293 36.292" xmlns="http://www.w3.org/2000/svg">
    <path d="M7.984 15.654v4.985c0 .827-.672 1.5-1.5 1.5H1.5c-.828 0-1.5-.673-1.5-1.5v-4.985a1.5 1.5 0 011.5-1.5h4.984c.828 0 1.5.673 1.5 1.5zm26.808-1.5H12.508a1.5 1.5 0 00-1.5 1.5v4.985c0 .827.673 1.5 1.5 1.5h22.285c.828 0 1.5-.673 1.5-1.5v-4.985a1.502 1.502 0 00-1.501-1.5zM6.484 2.779H1.5a1.5 1.5 0 00-1.5 1.5v4.985a1.5 1.5 0 001.5 1.5h4.984a1.5 1.5 0 001.5-1.5V4.279c0-.827-.672-1.5-1.5-1.5zm28.308 0H12.508a1.5 1.5 0 00-1.5 1.5v4.985a1.5 1.5 0 001.5 1.5h22.285a1.5 1.5 0 001.5-1.5V4.279a1.502 1.502 0 00-1.501-1.5zM6.484 25.53H1.5a1.5 1.5 0 00-1.5 1.5v4.984c0 .83.672 1.5 1.5 1.5h4.984a1.5 1.5 0 001.5-1.5V27.03a1.5 1.5 0 00-1.5-1.5zm28.308 0H12.508a1.5 1.5 0 00-1.5 1.5v4.984c0 .83.673 1.5 1.5 1.5h22.285a1.5 1.5 0 001.5-1.5V27.03a1.5 1.5 0 00-1.501-1.5z"></path>
  </symbol>

  <svg id="calendar" viewBox="0 0 22 22" xmlns="http://www.w3.org/2000/svg">
    <path d="M16.3982 4.64311C17.2413 4.64311 17.9242 3.9647 17.9242 3.12009V1.52605C17.9242 0.680677 17.242 0 16.3982 0C15.5543 0 14.8729 0.679922 14.8729 1.52605V3.12084C14.8736 3.9647 15.5551 4.64311 16.3982 4.64311Z"></path>
    <path d="M21.8194 2.63962H18.7477V3.41548C18.7477 4.696 17.7074 5.73931 16.4246 5.73931C15.1403 5.73931 14.1023 4.696 14.1023 3.41548V2.63962H7.90368V3.41548C7.90368 4.696 6.86189 5.73931 5.57986 5.73931C4.29783 5.73931 3.25679 4.69676 3.25679 3.41548V2.63962L0.157104 2.60109V22H1.70733H20.2949L21.8428 21.9955L21.8194 2.63962ZM20.2934 20.4551H1.70733V8.06237H20.2949V20.4551H20.2934Z"></path>
    <path d="M5.55566 4.64311C6.39877 4.64311 7.08247 3.9647 7.08247 3.12009V1.52605C7.08247 0.679922 6.39877 0 5.55566 0C4.71256 0 4.03113 0.679922 4.03113 1.52605V3.12084C4.03113 3.9647 4.71181 4.64311 5.55566 4.64311Z"></path>
    <path d="M10.3491 9.72516H7.9082V11.8798H10.3491V9.72516Z"></path>
    <path d="M14.298 9.72516H11.8548V11.8798H14.298V9.72516Z"></path>
    <path d="M17.9559 9.72516H15.515V11.8798H17.9559V9.72516Z"></path>
    <path d="M10.3491 13.303H7.9082V15.4561H10.3491V13.303Z"></path>
    <path d="M14.298 13.303H11.8548V15.4561H14.298V13.303Z"></path>
    <path d="M17.9559 13.303H15.515V15.4561H17.9559V13.303Z"></path>
    <path d="M10.3491 16.952H7.9082V19.1051H10.3491V16.952Z"></path>
    <path d="M6.47054 13.303H4.03113V15.4561H6.47054V13.303Z"></path>
    <path d="M6.47054 16.952H4.03113V19.1051H6.47054V16.952Z"></path>
    <path d="M14.298 16.952H11.8548V19.1051H14.298V16.952Z"></path>
    <path d="M17.9559 16.952H15.515V19.1051H17.9559V16.952Z"></path>
  </svg>

  <symbol id="phone" viewBox="0 0 27.442 27.442" xmlns="http://www.w3.org/2000/svg">
    <path d="M19.494 0H7.948a1.997 1.997 0 00-1.997 1.999v23.446c0 1.102.892 1.997 1.997 1.997h11.546a1.998 1.998 0 001.997-1.997V1.999A1.999 1.999 0 0019.494 0zm-8.622 1.214h5.7c.144 0 .261.215.261.481s-.117.482-.261.482h-5.7c-.145 0-.26-.216-.26-.482s.115-.481.26-.481zm2.85 24.255a1.275 1.275 0 110-2.55 1.275 1.275 0 010 2.55zm6.273-4.369H7.448V3.373h12.547V21.1z"></path>
  </symbol>

  <symbol id="mail" viewBox="0 0 512 512" xmlns="http://www.w3.org/2000/svg">
    <path d="M0 96.791v325.931l147.691-193.131zm364.309 132.781L512 422.724V96.794zm-83.187 17.425L484.663 64H27.341l203.435 182.912c14.421 13.099 36.031 13.099 50.346.085z"></path>
    <path d="M309.73 278.635c-15.275 13.909-34.475 20.864-53.696 20.864-19.243 0-38.507-6.976-53.867-20.949l-22.635-20.352L34.381 448h443.243L332.471 258.197l-22.741 20.438z"></path>
  </symbol>

  <symbol id="pin" viewBox="0 0 512 512" xmlns="http://www.w3.org/2000/svg">
    <path d="M256 0C153.755 0 70.573 83.182 70.573 185.426c0 126.888 165.939 313.167 173.004 321.035 6.636 7.391 18.222 7.378 24.846 0 7.065-7.868 173.004-194.147 173.004-321.035C441.425 83.182 358.244 0 256 0zm0 278.719c-51.442 0-93.292-41.851-93.292-93.293S204.559 92.134 256 92.134s93.291 41.851 93.291 93.293-41.85 93.292-93.291 93.292z"></path>
  </symbol>

  <symbol id="search" viewBox="0 0 56.966 56.966" xmlns="http://www.w3.org/2000/svg">
    <path d="M55.146 51.887L41.588 37.786A22.926 22.926 0 0046.984 23c0-12.682-10.318-23-23-23s-23 10.318-23 23 10.318 23 23 23c4.761 0 9.298-1.436 13.177-4.162l13.661 14.208c.571.593 1.339.92 2.162.92.779 0 1.518-.297 2.079-.837a3.004 3.004 0 00.083-4.242zM23.984 6c9.374 0 17 7.626 17 17s-7.626 17-17 17-17-7.626-17-17 7.626-17 17-17z"></path>
  </symbol>
</svg>
