<svg width="0" height="0" class="hidden">
  <symbol xmlns="http://www.w3.org/2000/svg" viewBox="0 0 633.9 485.2" id="ucf">
    <path d="M101.8 65.6C82.6 69 56.1 88.4 56.1 124c0 55.2 44.4 71.2 71.9 73.9 40.7 3.9 66.7-24.5 66.7-57.2-.1-79.7-73.7-78.4-92.9-75.1zm22.8 102.6c-23-1.6-36-11.1-36-40.9 0-15.2 5.3-25.1 24.4-29.7 19.1-4.6 50.2 2.3 50.2 37.7-.1 14.9-11.3 34.8-38.6 32.9z" fill="#ffcc2d"></path>
    <path d="M246.3 395.4l19.1-75.7 7 .5s12.6 75.2 12.5 75.2h-7.5s-10.2-61.6-10.2-61.5h-.5s-8.4 43.7-14.5 61.5h-5.9z"></path>
    <path d="M282 388.1l-.9 7.3h-32v-7.3zm86.7-232.5l2.1-48.1h-7.6l-3.2 77.7 11.7-.1s15.8-1.4 15.8-15.2c-.1-10-11.9-13.9-18.8-14.3zm-1 23.8l.9-18c3.9-.2 11.2-.1 11.2 9.3 0 6.7-8.5 8.9-12.1 8.7zm-22.6-51.7l7.3-.9s2.8-20.4-11.6-19.9-18.9 19.9-18.8 40.1c.1 20.2 1.9 39.6 17 39.2 15.1-.4 11.9-20.2 11.9-20.2l-7.6.8s3.1 11.7-3.8 11.7c-8.2 0-10.7-10.3-10-31 .7-21 1.6-33.2 11.3-33.2 5.4 0 4.3 13.4 4.3 13.4zm-164.5 37.9c-3.6-10.2-13.2-10.3-18.8-8.9l.6-16c20.8-2.3 22.1-31.4 22.1-31.4h-7.6c0 22-10.8 25.4-14.2 25.4l.7-25.4h-7.8l-2.1 75.9h7.9l.5-22.9c16.4-5.4 14.6 22.7 14.6 22.7h7.4c0 .2 1.2-6.7-3.3-19.4zM142 271.4c-3.6-10.2-13.2-10.3-18.8-8.9l.6-16c22.2-2.5 23-32.5 23-32.5h-7.6c0 22-11.7 26.5-15.1 26.5l.7-26.4H117l-2.1 77h7.9l.5-22.9c16.4-5.4 14.6 22.7 14.6 22.7h7.4c-.1.1 1.1-6.8-3.3-19.5zm277.5-105.8c-3.6-10.2-13.2-10.3-18.8-8.9l.6-16c20.8-2.3 22.1-31.4 22.1-31.4h-7.6c0 22-10.8 25.4-14.2 25.4l.7-25.4h-7.8l-2.1 75.9h7.9l.5-22.9c16.4-5.4 14.6 22.7 14.6 22.7h7.4c0 .2 1.2-6.7-3.3-19.4zm-222.7 20h-7.1l2.2-75.1h7.5z"></path>
    <path d="M196.9 141.2s23.5.4 23.5-17c0-10.6-12.8-13.4-21.2-14.2-4.2-.3-7.3-.2-7.3-.2l-.1 5.9 7.1-.2s14.1-2 14.1 8.9c0 6.5-6.7 10.8-15.8 10.8l-.3 6zm148.8 149.5h-7.1l2.2-75.1 7.4-.1z"></path>
    <path d="M345.8 246.3s23.5.4 23.5-17c0-10.6-12.8-13.4-21.2-14.2-4.2-.3-7.3-.2-7.3-.2l-.1 5.9 7.1-.2s14.1-2 14.1 8.9c0 6.5-6.7 10.8-15.8 10.8l-.3 6zm-80.7-61.2h-7.6l3-75.8 7.7.1zm7.1-96.5c-3 .8-5.6 2.8-5.6 7.2 0 6.8 5.5 8.6 8.8 9.1 1.2.2 1.5.1 1.5.1.6-.1 1.1-.1 1.7-.3 2.7-.9 4.9-2.8 4.9-6.8.1-9.9-11.3-9.3-11.3-9.3zm4.3 10.9c-.1 0-.2.1-.3.1-.3.1-.6.1-.9.1-2-.1-3.4-.7-3.4-3.4 0-1.3.8-2.3 1.9-2.5 2.7 0 4.6.3 4.6 3.4-.1 1.3-1 2-1.9 2.3zm-26-10.9c-3 .8-5.6 2.8-5.6 7.2 0 6.8 5.5 8.6 8.8 9.1 1.2.2 1.5.1 1.5.1.6-.1 1.1-.1 1.7-.3 2.7-.9 4.9-2.8 4.9-6.8.1-9.9-11.3-9.3-11.3-9.3zm4.3 10.9c-.1 0-.2.1-.3.1-.3.1-.6.1-.9.1-2-.1-3.4-.7-3.4-3.4 0-1.3.8-2.3 1.9-2.5 2.7 0 4.6.3 4.6 3.4 0 1.3-.9 2-1.9 2.3zm-128.2 66.6c-4.3 1.1-8.1 4-8.1 10.3 0 9.7 7.9 12.3 12.7 13 1.7.2 2.1.2 2.2.2.8-.2 1.6-.2 2.4-.4 3.8-1.3 7.1-4.1 7.1-9.8 0-14.1-16.3-13.3-16.3-13.3zm6.4 16.4c-.2.1-.3.1-.5.2-.5.1-1.1.1-1.5.1-3.3-.2-5.6-1.2-5.6-5.6 0-2.2 1.4-3.8 3.1-4.1 4.4 0 7.6.5 7.6 5.6 0 2.1-1.5 3.2-3.1 3.8zm6-73.2l.4 18.5c0 5.7-.1 9.5-.5 13.7-.6 7.3-1.5 15.8-8.1 15.8s-7.5-10.6-8.2-15.8c-.3-2.1-.7-5.2-.7-13.9s.7-18.3.7-18.3h-7.5s-.6 11.7-.6 18.2c0 6.4.4 10.9.6 13.9 1.1 13.9 4.2 21.6 15.8 21.6 10.6 0 14.5-7.5 15.7-21.7.4-4.8.4-8.3.4-13.6l-.5-18.3-7.5-.1zm28.7 161.6c-4.3 1.1-8.1 4-8.1 10.3 0 9.7 7.9 12.3 12.7 13 1.7.2 2.1.2 2.2.2.8-.2 1.6-.2 2.4-.4 3.8-1.3 7.1-4.1 7.1-9.8.1-14.1-16.3-13.3-16.3-13.3zm6.4 16.4c-.2.1-.3.1-.5.2-.5.1-1.1.1-1.5.1-3.3-.2-5.6-1.2-5.6-5.6 0-2.2 1.4-3.8 3.1-4.1 4.4 0 7.6.5 7.6 5.6 0 2.1-1.4 3.2-3.1 3.8zm6-73.2l.4 18.5c0 5.7-.1 9.5-.5 13.7-.6 7.3-1.5 15.8-8.1 15.8s-7.5-10.6-8.2-15.8c-.3-2.1-.7-5.2-.7-13.9 0-8.6.7-18.3.7-18.3h-7.5s-.6 11.7-.6 18.2c0 6.4.4 10.9.6 13.9 1.1 13.9 4.2 21.6 15.8 21.6 10.6 0 14.5-7.5 15.7-21.7.4-4.8.4-8.3.4-13.6l-.5-18.3-7.5-.1zm130.1 57.4c-4.3 1.1-8.1 4-8.1 10.3 0 9.7 7.9 12.3 12.7 13 1.7.2 2.1.2 2.2.2.8-.2 1.6-.2 2.4-.4 3.8-1.3 7.1-4.1 7.1-9.8.1-14.1-16.3-13.3-16.3-13.3zm6.5 16.3c-.2.1-.3.1-.5.2-.5.1-1.1.1-1.5.1-3.3-.2-5.6-1.2-5.6-5.6 0-2.2 1.4-3.8 3.1-4.1 4.4 0 7.6.5 7.6 5.6-.1 2.2-1.5 3.2-3.1 3.8zm6-73.1l.4 18.5c0 5.7-.1 9.5-.5 13.7-.6 7.3-1.5 15.8-8.1 15.8s-7.5-10.6-8.2-15.8c-.3-2.1-.7-5.2-.7-13.9s.7-18.3.7-18.3h-7.5s-.6 11.7-.6 18.2c0 6.4.4 10.9.6 13.9 1.1 13.9 4.2 21.6 15.8 21.6 10.6 0 14.5-7.5 15.7-21.7.4-4.8.4-8.3.4-13.6l-.5-18.3-7.5-.1zm138.7-105.3L440 168.3l2.3-58.9h-7.5l-2.6 75.7h7.7l22-62.3-1.5 62.3h7.4l1.1-75.7zm-14.1 105.7l-21.4 58.8 2.3-58.9h-7.4l-2.7 75.8h7.7l22.1-62.3-1.5 62.2 7.3.1 1.1-75.7zm-207-.3l-7.1-.5-3.1 75.1 7.4.6z"></path>
    <path d="M237.2 259.1s23.5 1.3 22.2 18.6c-.8 10.6-13.7 12.5-22.1 12.6-4.2.1-7.3-.3-7.3-.3l.3-5.9 7.1.7s13.9 3 14.7-7.9c.5-6.5-6-11.3-15-11.9l.1-5.9zm39.5 31.2h-6.9l1.8-75.6h7z"></path>
    <path d="M258.5 214.7l31.9-.6v5.8l-32 .5zM196.3 355c0-5-.2-8.8-.5-11.7v-.8c0-.4-.1-.9-.1-1.3-1.1-13.8-4.2-21.4-15.6-21.4-10.5 0-14.4 7.4-15.6 21.5-.4 4.8-.4 8.2-.4 13.5v5.6c0 5 .2 8.8.5 11.7v.8c0 .4.1.9.1 1.3 1.1 13.8 4.2 21.4 15.6 21.4 10.5 0 14.4-7.4 15.6-21.5.4-4.8.4-8.2.4-13.5V355zm-16.1 33.1c-6.5 0-7.5-8.6-8.1-13.8 0-.2-.5-8.7-.5-17.1 0-8 .4-15.8.4-16 .6-7.2 1.5-13.8 8-13.8s7.5 8.6 8.1 13.8c0 .2.5 8.3.5 16.4 0 8.2-.4 16.5-.4 16.7-.6 7.2-1.5 13.8-8 13.8zm45.7-232.8l16.5-1.4.9 5.6-18 .8z"></path>
    <path d="M250.4 185.6l-10.1-76.1-7.8-.7-14.7 76.7h6.4l10.8-60.6.7-.1 6.6 60.5zM137.3 395.8H130l1-75.9h7.6z"></path>
    <path d="M119.9 358.3c0-4-1.8-33 14.4-28l-.1-5.7c-5.6-1.3-14.1-.8-18.5 9-3.7 8.2-3.6 19.4-3.6 24.8s.1 15.1 3.6 22.9c4.4 9.8 12.9 10.3 18.5 9l.1-5.7c-15.5 4.7-14.4-22.3-14.4-26.3z"></path>
    <path d="M148.7 358.3c0-4 1.8-33-14.4-28l.1-5.7c5.6-1.3 14.1-.8 18.5 9 3.7 8.2 3.6 19.4 3.6 24.8s-.1 15.1-3.6 22.9c-4.4 9.8-12.9 10.3-18.5 9l-.1-5.7c15.5 4.7 14.4-22.3 14.4-26.3zm74-67.4l-10-77.1-7.8-.7-14.7 77.8h6.4l10.5-62.4.7-.1 6.9 62.5zm84.9-181.6l-1.6 44.6-18.5-13.2.8-31.5h-7.7l-2 76.4h7.6l1-36.4 18.2 13.4-.9 23h7.7l2.9-76.2zm-74.8 208.9l-1.6 44.6-18.4-13.2.7-31.5h-7.7l-2 76.4h7.6l1-36.4 18.2 13.4-.9 23h7.7l2.9-76.2zM402.3 215l-1.6 44.7-18.4-13.2.7-31.5h-7.6l-2.1 76.3h7.6l1-36.3 18.3 13.3-.9 23h7.6l3-76.1zm104.2-105.6l-21.4 58.9 2.3-58.9H480l-2.7 75.7h7.7l22.1-62.3-1.5 62.3h7.3l1.1-75.7zM502 94.6c-.2 3.4-.8 6.7-4.6 6.7-4.5 0-5.2-3.2-5.3-6.8l-5 .6c.5 6.9 3.3 11.6 10.3 11.6 8 0 9.6-6.1 9.9-11.5l-5.3-.6zm-9.9 120.5L470.7 274l2.4-58.9h-7.5l-2.7 75.7h7.8l22-62.3-1.5 62.2 7.3.1 1.1-75.7zm-4.4-14.9c-.2 3.4-.8 6.7-4.6 6.7-4.5 0-5.2-3.2-5.3-6.8l-5 .6c.5 6.9 3.3 11.6 10.3 11.6 8 0 9.6-6.1 9.9-11.5l-5.3-.6zm-63.1 146.4l-87.3-1.7-2.1-25.6 94.9 5.1zm-19.4 41.7l-87.2-1.7-2.1-25.5 94.8 5z"></path>
  </symbol>
</svg>
