<svg width="0" height="0" class="hidden">
  <symbol version="1.0" xmlns="http://www.w3.org/2000/svg" viewBox="0 0 496 279" id="ucf">
    <path d="M130.5 9.1c1.3 10.6 1.1 96.7-.3 109.4-3.6 32.6-9.5 45.9-21.8 49-9.8 2.5-17.7-1.8-23.1-12.6-9-17.8-13-58.1-11.2-113.9.5-16.2 1.1-31 1.4-32.8l.6-3.2H62.7c-13.1 0-13.5.1-14.1 2.2-1.3 4.8-1.9 79.2-.7 95.8 3 42.4 7.8 60.5 19.3 72.6 8.6 9.1 19.7 13.4 34.9 13.4 39.6.1 54.3-25.5 56.5-98.3.5-17-.9-84.4-1.8-85.2-.1-.1-6.3-.6-13.6-1l-13.4-.7.7 5.3zM183 7.2c0 1.8-1.6 58.9-3.5 126.8S176 261.2 176 265.7v8.3h27.7l.6-15.7c.4-8.7.7-23.2.7-32.3 0-9.1.3-20.2.6-24.7l.7-8.1 6.2-1.1c19.3-3.4 32.9 8.7 39.3 34.9 2.6 10.4 4.2 24.8 4.2 37v9h27.3l-.6-14.2c-.7-16.6-3.5-30.3-9.6-48.8-4.7-14.1-6.5-17.4-13.6-24.9-5.5-5.8-13.3-10.3-22.2-12.6-6.3-1.7-21.6-2-27.7-.6l-3.8.9.6-21.6c.4-11.9.9-24.3 1.2-27.4l.6-5.7 5.6-1.1c20.9-4.1 38.4-16 50.4-34.2 12-18 21.1-45.8 23.4-71.1l.6-7.7h-26.9l-.7 5.2c-.3 2.9-.6 7.2-.6 9.4 0 12.3-5.1 31.7-11.8 45.4-7.8 16-22.6 28.9-36.1 31.6l-3.4.7.6-17.9c.4-9.8 1-30.6 1.3-46.2l.7-28.2H183v3.2zm174.6 1.4c-.3 2.6-.6 6-.6 7.5 0 2.7-.2 2.9-4.2 2.9-6.8 0-17.8 2.7-24.4 6-19.7 9.7-31.9 34.5-36.6 74.5-1.9 16.8-1.7 68.8.5 84.1 4.2 30 12.2 49.2 25.6 61.6 8.7 8.1 16.4 11.3 31.4 13.3l4.7.6V277h27v-18.5l7.1-.2c33.7-.8 53.3-26.1 59.9-77.3 1.8-13.9 2.3-48.1 1.1-66.7-3.8-58.2-19.4-87.2-50.6-93.8-3.8-.8-8.2-1.5-9.7-1.5H386V4h-27.7l-.7 4.6zm-1.5 113.3c-.6 43.2-1.1 86.8-1.1 96.8 0 20.8.4 20.1-8.5 15.9-12.8-6.1-20.7-20.9-25.2-47.2-1.5-9.3-1.8-16.6-1.8-49.9 0-33.6.3-40.4 1.9-49 4.4-24 11.3-37.7 22.1-44.1 5.4-3.1 12.9-4.6 13.3-2.6.2.8-.1 36.8-.7 80.1zm38.7-78.3c12.3 6.1 20.5 22.7 24.4 49.2 2.1 13.9 1.7 80.7-.5 94.1-3.2 19.5-8.2 32.4-16 40.8-4.7 5.1-12.5 9.3-17.4 9.3H382v-9.3c0-5 .7-44.3 1.5-87.2.8-42.9 1.5-82.8 1.5-88.8 0-10.5 0-10.7 2.3-10.7 1.3 0 4.6 1.2 7.5 2.6zM83.3 199.9c-14.1 5.2-21.6 15.4-23 31.1-1.5 17.9 6.6 33.5 21.4 41.3 9.3 4.8 17.2 6.7 28.8 6.7 8.2 0 10.4-.4 15-2.5 6.3-3 12.6-8.9 15.4-14.4 3.3-6.4 4.6-16.8 3.2-25.3-3.7-22.7-20.2-35.7-48.6-38.2-5.5-.4-8.1-.2-12.2 1.3zm28.7 25.7c5.2 3 7.2 6.4 7.7 13.6.5 6.2.4 6.6-2.6 10.1-4 4.5-8.8 6.1-15.8 5.4-10.9-1.1-16.3-6.9-16.3-17.5 0-6.2.2-6.6 4-10.4l4-4.1 7.9.5c5.2.3 8.9 1.1 11.1 2.4z"></path>
  </symbol>
</svg>
