<svg xmlns="http://www.w3.org/2000/svg" width="20" height="21" fill="none" viewBox="0 0 20 21">
    <path fill="#B49864" fill-rule="evenodd" d="M2 9.78c0-3.94 3.134-7.133 7-7.133s7 3.194 7 7.133c0 1.92-.745 3.663-1.956 4.946-.036.027-.07.058-.103.091-.032.034-.062.069-.09.105-1.258 1.233-2.968 1.991-4.851 1.991-3.866 0-7-3.194-7-7.133zm12.617 7.166c-1.54 1.255-3.493 2.005-5.617 2.005-4.97 0-9-4.106-9-9.17C0 4.714 4.03.608 9 .608s9 4.106 9 9.171c0 2.166-.737 4.157-1.969 5.726l3.675 3.744c.39.398.39 1.043 0 1.44-.391.399-1.024.399-1.415 0l-3.674-3.744z" clip-rule="evenodd"/>
</svg>
