<svg xmlns="http://www.w3.org/2000/svg" width="24" height="24" fill="none" viewBox="0 0 24 24">
    <path fill="#B49864" d="M18.364 17.364L12 23.728l-6.364-6.364c-1.259-1.259-2.116-2.862-2.463-4.608-.347-1.746-.17-3.556.512-5.2C4.366 5.91 5.52 4.506 7 3.516 8.48 2.529 10.22 2 12 2c1.78 0 3.52.528 5 1.517 1.48.989 2.634 2.394 3.315 4.039.681 1.644.86 3.454.512 5.2-.347 1.746-1.204 3.35-2.463 4.608zM12 13c.53 0 1.04-.21 1.414-.586C13.79 12.04 14 11.53 14 11c0-.53-.21-1.04-.586-1.414C13.04 9.21 12.53 9 12 9c-.53 0-1.04.21-1.414.586C10.21 9.96 10 10.469 10 11c0 .53.21 1.04.586 1.414.375.375.884.586 1.414.586z"/>
</svg>
