<svg xmlns="http://www.w3.org/2000/svg" width="24" height="24" fill="none" viewBox="0 0 24 24">
    <path fill="#fff" fill-rule="evenodd" d="M21 3h-4V1h-2v2H9V1H7v2H3c-.265 0-.52.105-.707.293C2.105 3.48 2 3.735 2 4v16c0 .265.105.52.293.707.187.188.442.293.707.293h18c.265 0 .52-.105.707-.293.188-.187.293-.442.293-.707V4c0-.265-.105-.52-.293-.707C21.52 3.105 21.265 3 21 3zM4 11h16v8H4v-8zm5-6h6v2h2V5h3v4H4V5h3v2h2V5zm-1 9v-2H6v2h2zm5-2h-2v2h2v-2zm5 2v-2h-2v2h2zM8 18v-2H6v2h2zm3-2h2v2h-2v-2zm7 2v-2h-2v2h2z" clip-rule="evenodd"/>
</svg>
