<svg xmlns="http://www.w3.org/2000/svg" width="17" height="16" fill="none" viewBox="0 0 17 16">
    <path fill="#b49864" d="M12.339 11.577l-4.276 4.242-4.276-4.242c-.846-.84-1.422-1.909-1.655-3.072-.234-1.164-.114-2.37.344-3.467.458-1.096 1.233-2.034 2.227-2.693.995-.66 2.164-1.011 3.36-1.011 1.196 0 2.365.352 3.36 1.011.994.66 1.77 1.597 2.227 2.693.457 1.096.577 2.303.344 3.466-.233 1.164-.81 2.234-1.655 3.073zm-4.276-2.91c.356 0 .698-.14.95-.39s.394-.59.394-.943c0-.354-.142-.693-.394-.943s-.594-.39-.95-.39c-.357 0-.698.14-.95.39s-.394.59-.394.943c0 .354.142.693.394.943s.593.39.95.39z"/>
</svg>
