<svg xmlns="http://www.w3.org/2000/svg" width="24" height="24" fill="none" viewBox="0 0 24 24">
    <g clip-path="url(#clip0)">
        <path fill="#0e0c08" fill-rule="evenodd" d="M11.032 2.945c-5.014 0-9.297 3.12-11.032 7.522 1.735 4.403 6.018 7.522 11.032 7.522.759 0 1.5-.071 2.22-.208l.196-.148c-.011-.126-.016-.253-.016-.377 0-.128.008-.256.02-.379l-1.116-.847c-.217-.161-.329-.399-.333-.642-.314.062-.639.094-.97.094-2.769 0-5.015-2.247-5.015-5.015s2.246-5.014 5.014-5.014c2.768 0 5.015 2.246 5.015 5.014 0 .848-.211 1.647-.583 2.348l.321.125c.214-.142.442-.272.683-.385l.2-1.377c.064-.417.416-.71.83-.71h2.578c.398 0 .772.278.838.71l.001.004.177 1.215c.38-.608.706-1.254.972-1.93-1.735-4.403-6.017-7.522-11.032-7.522zm0 4.513c-1.665 0-3.009 1.344-3.009 3.01 0 1.664 1.344 3.008 3.01 3.008 1.664 0 3.008-1.344 3.008-3.009 0-1.665-1.344-3.009-3.009-3.009zm11.892 9.53c0 .169-.013.332-.032.488l1.076.828c.104.075.13.207.065.32l-1.032 1.736c-.064.112-.2.156-.316.112l-1.283-.501c-.264.194-.554.363-.87.489l-.193 1.329c-.013.125-.123.213-.252.213h-2.063c-.129 0-.232-.088-.258-.213l-.193-1.33c-.316-.125-.6-.287-.87-.488l-1.284.501c-.116.038-.251 0-.316-.112l-1.031-1.737c-.058-.106-.033-.244.064-.32l1.09-.827c-.026-.156-.039-.326-.039-.489 0-.163.02-.332.045-.489l-1.09-.827c-.103-.075-.128-.207-.064-.32l1.032-1.736c.064-.113.2-.157.316-.113l1.283.502c.264-.195.554-.364.87-.49l.194-1.328c.019-.126.122-.213.25-.213h2.064c.13 0 .239.087.258.213l.193 1.329c.316.125.6.288.87.489l1.284-.502c.116-.038.251 0 .316.113l1.031 1.736c.058.107.033.245-.064.32l-1.09.827c.026.157.039.32.039.49zm-5.803 0c0 1.034.87 1.88 1.934 1.88s1.935-.846 1.935-1.88c0-1.035-.87-1.881-1.934-1.881s-1.935.846-1.935 1.88z" clip-rule="evenodd"/>
    </g>
    <defs>
        <clipPath id="clip0">
            <path fill="#fff" d="M0 0H24V24H0z"/>
        </clipPath>
    </defs>
</svg>
