<svg xmlns="http://www.w3.org/2000/svg" width="20" height="20" fill="none" viewBox="0 0 20 20">
    <path fill="#B6B6B4" fill-rule="evenodd" d="M2 9c0-3.866 3.134-7 7-7s7 3.134 7 7c0 1.887-.747 3.6-1.961 4.86-.033.025-.065.053-.096.083-.03.03-.058.063-.084.096C12.6 15.253 10.887 16 9 16c-3.866 0-7-3.134-7-7zm12.618 7.032C13.078 17.264 11.125 18 9 18c-4.97 0-9-4.03-9-9s4.03-9 9-9 9 4.03 9 9c0 2.125-.736 4.078-1.968 5.618l3.675 3.675c.391.39.391 1.024 0 1.415-.39.39-1.023.39-1.414 0l-3.675-3.676z" clip-rule="evenodd"/>
</svg>
