<svg xmlns="http://www.w3.org/2000/svg" width="20" height="21" fill="none" viewBox="0 0 20 21">
    <path fill="#B49864" fill-rule="evenodd" d="M2 9.17c0-3.939 3.134-7.132 7-7.132s7 3.193 7 7.133c0 1.92-.745 3.663-1.956 4.945-.036.028-.07.059-.103.092-.032.033-.062.068-.09.104-1.258 1.234-2.968 1.992-4.851 1.992-3.866 0-7-3.194-7-7.133zm12.617 7.167c-1.54 1.255-3.493 2.005-5.617 2.005-4.97 0-9-4.106-9-9.171C0 4.106 4.03 0 9 0s9 4.106 9 9.17c0 2.167-.737 4.157-1.969 5.726l3.675 3.744c.39.398.39 1.043 0 1.441-.391.398-1.024.398-1.415 0l-3.674-3.744z" clip-rule="evenodd"/>
</svg>
