<svg xmlns="http://www.w3.org/2000/svg" width="24" height="24" fill="none" viewBox="0 0 24 24">
    <g clip-path="url(#clip0)">
        <path fill="#B49864" d="M22 6.438h-7c-1.591 0-3.117.622-4.243 1.73C9.632 9.274 9 10.777 9 12.343c0 1.566.632 3.069 1.757 4.176 1.126 1.108 2.652 1.73 4.243 1.73h7v1.969c0 .26-.105.511-.293.696-.187.184-.442.288-.707.288H3c-.265 0-.52-.104-.707-.288C2.105 20.73 2 20.48 2 20.219V4.469c0-.261.105-.512.293-.696.187-.185.442-.289.707-.289h18c.265 0 .52.104.707.289.188.184.293.435.293.696v1.968zm-7 1.968h8v7.875h-8c-1.06 0-2.078-.415-2.828-1.153S11 13.388 11 12.344c0-1.044.421-2.046 1.172-2.784.75-.739 1.767-1.154 2.828-1.154zm0 2.953v1.97h3v-1.97h-3z"/>
    </g>
    <defs>
        <clipPath id="clip0">
            <path fill="#fff" d="M0 0H24V24H0z"/>
        </clipPath>
    </defs>
</svg>
