<svg xmlns="http://www.w3.org/2000/svg">
  <symbol id="phone" viewBox="0 0 8 8">
    <path
      d="M.19 0c-.11 0-.19.08-.19.19v7.63c0 .11.08.19.19.19h4.63c.11 0 .19-.08.19-.19v-7.63c0-.11-.08-.19-.19-.19h-4.63zm.81 1h3v5h-3v-5zm1.5 5.5c.28 0 .5.22.5.5s-.22.5-.5.5-.5-.22-.5-.5.22-.5.5-.5z"
    />
  </symbol>
  <symbol id="mail" viewBox="0 0 8 8">
    <path d="M0 0v1l4 2 4-2v-1h-8zm0 2v4h8v-4l-4 2-4-2z"/>
  </symbol>
  <symbol id="pin" viewBox="0 0 8 8">
    <path
      d="M1.34 0a.5.5 0 0 0 .16 1h.5v2h-1c-.55 0-1 .45-1 1h3v3l.44 1 .56-1v-3h3c0-.55-.45-1-1-1h-1v-2h.5a.5.5 0 1 0 0-1h-4a.5.5 0 0 0-.09 0 .5.5 0 0 0-.06 0z"/>
  </symbol>
</svg>
