<svg width="24" height="24" viewBox="0 0 10 12" fill="none" xmlns="http://www.w3.org/2000/svg">
<path d="M9.23134 3.63929C9.23134 3.63929 9.5196 3.49516 9.23134 3.06277C9.10373 2.85874 8.95909 2.66587 8.79895 2.48625C8.79895 2.48625 9.63346 2.61452 9.37547 2.48625C8.79895 2.19799 8.65481 1.62147 8.36655 1.33321C8.07829 1.04494 7.93416 1.04494 7.79003 0.900814C7.6459 0.756684 8.36655 0.756684 8.36655 0.756684C8.10727 0.589096 7.80975 0.489924 7.50177 0.468423C7.06938 0.468423 6.78112 0.756684 6.78112 0.612554C6.78112 0.468423 6.78112 0.0360326 6.2046 0.0360326C5.62808 0.0360326 4.04264 -0.108098 3.46612 0.180163C2.8896 0.468423 2.16895 1.04494 2.16895 2.05386C2.16895 2.05386 1.73656 2.05386 1.59243 2.19799C1.4023 2.35093 1.25362 2.54916 1.16004 2.77451C1.01591 3.2069 1.16004 3.43607 1.16004 3.63929C1.16004 4.21581 0.951049 4.09618 0.871777 4.21581C0.583517 4.6482 0.151126 4.35994 0.439386 4.6482C0.508258 4.72961 0.600966 4.78732 0.704416 4.81319C0.807866 4.83905 0.916828 4.83175 1.01591 4.79233C1.00843 4.99243 0.959347 5.18878 0.871777 5.36885C0.727647 5.65711 0.295256 5.65711 0.295256 5.65711C0.295256 5.94537 0.583517 6.23364 0.727647 6.37777C0.871777 6.5219 1.30417 6.5219 1.01591 6.95429C0.837186 7.22237 1.01591 7.24255 1.01591 7.24255C1.01591 7.24255 5.48395 10.7017 5.62808 10.8458C5.77221 10.9899 5.87886 11.2782 5.62808 11.1341C1.59243 8.82798 0.583517 7.70953 0.583517 7.38668C0.583517 6.95429 0.871777 7.09842 0.871777 7.09842C0.871777 7.09842 0.47686 6.73377 0.295256 7.09842C0.151126 7.38668 0.393265 7.64179 0.439386 7.81907C0.492715 8.02806 0.342819 8.49072 0.439386 8.68385C0.583517 8.97211 0.727647 9.26037 2.60134 10.4134C4.47504 11.5665 6.47268 12.2035 6.63699 11.7106C6.78112 11.2782 6.49286 10.2693 6.2046 10.2693C5.48395 10.2693 3.32199 9.11624 2.74547 8.10733C2.51919 7.71097 2.74547 7.38668 3.03373 7.53081C3.32199 7.67494 3.75438 7.67494 3.61025 7.24255C3.46612 6.81016 3.09715 5.97276 3.03373 5.65711C2.8896 4.93646 4.04264 4.50407 3.75438 4.35994C3.46612 4.21581 2.8896 5.08059 2.8896 4.93646C2.8896 4.79233 3.17786 4.21581 3.46612 4.07168C3.75438 3.92755 4.04264 3.49516 4.04264 3.2069C4.04264 2.75145 3.46612 2.95323 3.46612 2.63038C3.46612 2.34212 3.86392 2.19799 4.18677 2.19799C4.61917 2.19799 5.91634 2.34212 6.2046 2.77451C6.49286 3.2069 6.78112 3.35103 6.92525 3.2069C7.06938 3.06277 6.34873 2.22537 6.92525 2.34212C7.6459 2.48625 8.07829 2.7601 8.07829 3.49516C8.07829 4.35994 8.39682 4.37147 8.22242 4.79233C8.17342 4.91196 8.07829 4.93646 7.79003 5.08059C7.46286 5.2449 6.84454 5.56055 7.06938 6.23364C7.21351 6.66603 7.79003 7.53081 7.21351 7.53081C6.89066 7.53081 6.2046 7.09842 6.2046 7.38668C6.2046 7.67494 7.06938 7.67494 7.06938 8.10733C7.06938 8.53972 6.92525 8.39559 6.92525 8.39559C6.92525 8.39559 5.48395 8.10733 5.48395 8.39559C5.48395 8.68385 6.06047 8.53972 6.2046 8.53972C6.49286 8.53972 6.92525 8.50513 6.92525 8.82798C6.92525 8.82798 6.92525 8.97211 6.63699 8.97211C6.34873 8.97211 6.2046 8.97211 6.2046 9.11624C6.2046 9.26037 6.49286 9.11624 6.63699 9.4045C6.92525 9.98102 6.2046 10.2693 6.2046 10.2693C6.36063 10.2699 6.51255 10.2193 6.63699 10.1252C7.06938 9.69276 7.93416 7.9632 7.93416 7.38668C7.93416 6.81016 7.99614 6.57234 8.22242 6.23364C8.51068 5.80124 8.63752 5.90358 8.94308 5.80124C9.37547 5.65711 8.79895 4.50407 9.08721 4.50407H9.37547C9.37547 4.50407 8.94308 3.92755 8.94308 3.63929C8.94308 3.35103 9.23134 3.63929 9.23134 3.63929Z" fill="#0E0C08"/>
<path d="M5.62802 6.3776C5.77215 6.52173 6.06041 6.23347 6.34867 5.94521C6.63693 5.65695 7.06932 5.36869 6.92519 5.08043C6.78106 4.79217 6.06041 4.9363 5.91628 4.79217C5.77215 4.64804 5.77215 4.50391 5.48389 4.50391C5.28399 4.51276 5.08792 4.56178 4.90737 4.64804C4.64938 4.90603 4.33085 5.08043 5.0515 5.22456C5.77215 5.36869 6.06041 5.51282 5.91628 5.94521C5.88457 6.04034 5.48389 6.23347 5.62802 6.3776Z" fill="#0E0C08"/>
<path d="M5.33985 6.08938C5.48398 6.08938 5.62811 5.94525 5.77224 5.80112C5.91637 5.65699 5.48398 5.65699 5.33985 5.65699C5.19572 5.65699 4.94926 5.55754 4.90746 5.65699C4.82963 5.8458 5.19572 6.08938 5.33985 6.08938Z" fill="#0E0C08"/>
</svg>
