<svg xmlns="http://www.w3.org/2000/svg" width="130" height="48" fill="none" viewBox="0 0 130 48">
    <path fill="#fff" d="M60.537 25.668c1.274-1.465 2.248-2.883 3.574-4.445.433-.514 1.326-1.517 2.116-1.517.075 0 .148.014.217.043.069.029.13.072.181.126.051.055.09.119.115.189.025.07.035.145.03.219 0 .842-.946 2.306-1.114 2.6-1.153 2.116-1.977 3.494-3.413 6.013-.541.923-.813 2.387-1.654 2.387-.153 0-.3-.06-.408-.169-.108-.108-.169-.255-.169-.408.032-.441.17-.869.404-1.245.974-1.73 2.41-3.551 3.142-5.42-.367.145-.687.388-.923.704-1.354 1.493-2.68 3.332-4.335 4.716-.576.456-1.255.763-1.977.894-.064.005-.128-.002-.188-.023-.06-.02-.115-.054-.161-.098-.046-.043-.083-.096-.107-.155-.025-.059-.036-.122-.034-.186 0-.76.974-2.167 1.153-2.576.513-.975 1.516-2.572 1.816-3.633-.865.41-1.926 2.03-2.63 2.739-.841.842-1.787 2.196-3.383 2.196-.117.014-.235.014-.352 0-.433-.052-.842-.576-1.274-.576-.433 0-1.407 1.303-1.764 1.73-.358.426-1.327 1.406-2.059 1.406-.622 0-.76-.622-.76-1.245 0-1.032 1.152-4.74 2.628-4.74.704 0 1.303.704 1.678.785.375.08 1.626-1.977 1.925-2.468.3-.49.542-.813.813-1.302.315-.45.561-.944.733-1.465 0-.352-.842-.133-1.816-.27-1.558-.175-3.02-.839-4.174-1.898-.68-.759-1.056-1.742-1.055-2.761-.003-.526.117-1.045.351-1.516.813-1.597 2.929-2.981 5.368-2.981 2.438 0 5.638 1.216 8.348 1.73 1.082.197 2.18.297 3.28.3 1.912.026 3.812-.295 5.61-.946.622-.242 1.153-.704 2.058-1.084.088-.04.184-.06.28-.06.098 0 .193.022.28.063.089.041.166.1.229.175.062.074.108.16.133.254.133.761-.865 1.194-1.626 1.517-2.206.908-4.579 1.342-6.964 1.274-2.215-.004-4.418-.342-6.532-1.003-1.642-.576-3.358-.914-5.096-1.004-.965-.024-1.918.209-2.762.675-.49.266-.905.651-1.207 1.12-.302.468-.482 1.005-.523 1.56 0 1.304 1.113 2.22 2.278 2.74.674.322 2.03.783 2.882.512.242-.08.623-1.153 1.246-1.867.213-.243 1.026-1.056 1.677-1.056.38 0 .577.271.577.675-.077.6-.222 1.19-.432 1.758-.052.22 0 .271.218.271.433 0 1.303-.38 1.845-.46.733-.14 1.355-.49 1.678-.49.133 0 .271.322.271.35 0 .543-1.464 1.113-2.006 1.275-.81.314-1.643.568-2.49.76-.243.053-.785 1.217-1.033 1.627-.633 1.16-1.348 2.273-2.139 3.332-.27.38-1.055 1.153-1.055 1.626 0 .3.352.461.704.461.974 0 2.196-1.303 2.657-1.73 1.845-1.73 3.575-3.822 5.258-5.765.242-.27.542-.893 1.084-.893.08 0 .159.016.232.047.073.032.139.079.193.137.054.059.096.128.122.203.026.076.036.156.03.235-.074.563-.258 1.106-.542 1.597-.41.842-1.055 1.926-1.303 2.387-.813 1.493-1.678 2.71-2.22 4.226.827-.648 1.586-1.378 2.266-2.18zm-11.38 2.727c.19-.243.732-.813.732-1.274-.003-.114-.05-.223-.13-.303-.08-.08-.19-.127-.303-.13-.164.017-.322.067-.467.146-.144.08-.272.186-.374.315-.435.575-.698 1.26-.762 1.978.003.119.02.237.052.351.542-.155.87-.61 1.251-1.083zm5.632-9.404c0 .11.052.19.161.19.243 0 .433-.241.514-.576.03-.134.048-.271.051-.41-.294-.086-.726.485-.726.78v.016zM70.044 26.209c-.577.322-1.597.576-1.655.841-.028.191-.046.384-.052.577-.02.28.02.56.117.822.098.263.25.501.449.7.198.197.436.35.699.448.262.098.543.137.822.117 1.764 0 4.307-2.358 5.765-3.794.514-.513 1.246.22.704.784-2.22 2.278-4.226 4.226-6.965 4.226-2.058 0-3.032-1.73-3.032-3.384 0-2.6 3.252-7.178 6.232-7.178.214-.013.429.018.63.09.202.074.386.188.541.336.155.148.279.326.362.524.083.197.125.41.122.624-.023 2.15-2.704 3.13-4.74 4.267zm-.842-1.275c-.026.061-.043.125-.052.19 0 .139.08.19.242.19.865 0 3.794-1.977 3.794-3.141 0-.22-.11-.577-.38-.577-1.246.006-3.246 2.393-3.604 3.338z"/>
    <path fill="#fff" d="M76.034 26.342c.008-.096.037-.19.084-.274.046-.085.11-.158.187-.216.784-.733 1.758-1.517 2.277-1.926 1.73-1.384 3.46-2.98 5.339-2.98.153 0 .3.06.407.168.108.108.17.255.17.408 0 .461-.577.865-.975 1.153-1.303.951-3.46 1.787-4.036 2.358-.916.983-1.487 2.238-1.625 3.574 0 .652.27 1.153 1.055 1.153 1.844 0 4.612-3.2 5.229-4.658.432-1.032 1.977-4.036 3.222-4.036.352 0 .577.19.577.623 0 1.055-1.949 2.358-2.883 4.364-.432.794-.692 1.67-.76 2.572 0 .703.35 1.032.864 1.032.47-.034.926-.182 1.326-.433 1.113-.622 3.742-3.522 4.093-3.522.132.013.254.072.348.165.093.094.152.216.165.348 0 .46-3.764 4.035-5.31 4.577-.337.128-.693.202-1.054.22-1.926 0-1.545-2.14-1.788-2.578 0 0-.08 0-.11.081-.922 1.084-2.928 2.629-4.335 2.629-1.516 0-2.087-1.055-2.087-2.277.021-.684.178-1.356.462-1.978v-.08c-.086.034-.178.05-.27.044-.093-.005-.182-.031-.263-.076-.081-.045-.15-.107-.204-.183-.054-.075-.09-.161-.105-.252z"/>
    <path fill="#fff" d="M105.483 24.692c-1.303 1.217-2.468 2.572-3.713 3.984-.352.433-1.113 1.868-1.845 1.868-.072-.002-.143-.019-.209-.05-.065-.03-.124-.073-.172-.127-.048-.054-.084-.118-.107-.186-.023-.069-.031-.141-.025-.213.027-.403.137-.795.323-1.153.784-1.546 2.196-4.036 2.196-5.472 0-.351-.052-.864-.576-.864-.652 0-1.73.76-2.168 1.153-1.828 1.578-3.258 3.565-4.174 5.8-.19.49-.432 1.055-.922 1.055-.087.005-.175-.007-.257-.038-.081-.03-.156-.078-.217-.14-.062-.062-.11-.136-.14-.218-.031-.082-.044-.169-.038-.256.047-.425.165-.838.352-1.222.76-1.73 1.597-2.49 2.277-4.416.175-.536.276-1.092.3-1.655 0-.432-.11-.784-.404-.784-.893 0-2.761 2.738-5.015 4.797-.675.622-1.355-.3-.784-.733 1.383-1.084 3.142-3.522 4.738-4.687.436-.366.977-.585 1.546-.622.922 0 1.274.974 1.274 2.087-.006.418-.052.835-.139 1.245.842-.623 2.52-2.883 4.468-2.883.894 0 1.355.577 1.355 1.545-.067 1.075-.294 2.134-.674 3.142-.191.577 1.274-.864 1.677-1.245.825-.857 1.732-1.63 2.71-2.306.436-.267.927-.435 1.436-.49.133.005.265.037.386.095.12.059.227.141.314.243.087.102.152.221.19.35.038.128.049.263.032.396-.122 1.03-.445 2.024-.951 2.929-.433.945-1.153 2.738-1.153 3.522 0 .139 0 .38.242.38.865 0 3.903-2.68 4.848-3.631.052-.049.112-.086.178-.11.066-.025.136-.037.207-.035.07.003.139.02.204.048.064.03.121.071.169.122.049.052.086.112.111.178.024.066.036.137.034.207-.003.07-.019.14-.048.204-.029.064-.071.122-.122.17-1.22 1.194-2.524 2.298-3.903 3.303-.433.3-1.546 1.032-2.41 1.032-.165.002-.329-.032-.479-.1-.151-.067-.285-.165-.395-.289-.109-.123-.19-.269-.239-.427-.048-.157-.062-.323-.04-.487 0-1.084.703-2.52 1.003-3.28.461-1.113 1.112-2.058 1.153-3.2-.969.08-1.753.865-2.404 1.464zm4.768-5.638c-1.355 0-2.658-.41-4.497-.41-1.768.022-3.532.159-5.281.41-1.194.162-1.73.323-2.007.323-.085-.002-.166-.036-.226-.096-.06-.06-.095-.142-.096-.227 0-.542 1.354-.761 2.138-.945 2.418-.484 4.88-.708 7.345-.67.675 0 1.355 0 2.03.053.674.052 1.729.138 1.729 1.032.006.42-.565.53-1.135.53z"/>
    <path fill="#fff" d="M118.028 25.426c1.729-1.845 4.116-4.307 6.503-4.93.203-.051.412-.078.623-.08.155-.018.312-.002.46.047.149.048.285.128.4.233.115.105.207.234.268.378.061.143.091.298.088.454-.044.6-.201 1.187-.461 1.73-.623 1.493-1.493 2.842-2.058 4.116-.192.387-.337.796-.433 1.217 0 .161.162.242.352.242.47-.049.928-.178 1.355-.38 1.003-.462 2.006-1.384 3.251-2.6.49-.462 1.246.27.813.731-1.435 1.488-3.032 2.762-4.577 3.304-.435.162-.892.254-1.355.27-.784 0-1.217-.46-1.217-1.325 0-1.055.675-2.439 1.326-3.684.323-.623 1.246-2.277 1.246-2.681 0-.138-.11-.22-.3-.22-.698.12-1.363.387-1.949.785-2.177 1.627-4.175 3.48-5.961 5.529-1.896 2.154-3.643 4.434-5.229 6.826-.323.49-.784 1.326-1.493 1.326-.219 0-.404-.271-.404-.513.07-.401.247-.776.513-1.084 2.365-3.648 4.512-7.433 6.428-11.334-.403 0-2.358 2.357-2.951 2.819-.594.46-1.194-.162-.733-.761 1.069-.898 2.05-1.896 2.929-2.981.759-1.002 1.695-1.855 2.762-2.52.176-.104.372-.17.576-.19.404 0 .675.433.675.865-.072.687-.377 1.328-.865 1.816-1.218 1.5-2.191 3.183-2.883 4.987.826-.738 1.595-1.538 2.301-2.392zM46.712 36.897v-.916h.801v.916h-.8zm0 5.587v-4.716h.801v4.716h-.8zM48.753 37.773h1.245l1.24 3.77 1.378-3.77h1.153v4.716h-.802v-3.793l-1.395 3.793h-.715l-1.32-3.978v3.978h-.784v-4.716zM58.208 40.967l.824.104c-.105.446-.36.842-.72 1.124-.455.298-.995.436-1.537.394-.542-.043-1.054-.265-1.456-.63-.428-.494-.645-1.136-.605-1.788-.042-.67.177-1.331.611-1.844.203-.218.45-.389.724-.502.275-.113.57-.166.867-.156.29-.01.577.043.843.155.267.111.506.279.702.491.418.507.625 1.155.577 1.81v.214h-3.511c-.002.435.154.857.438 1.187.126.135.279.242.449.313.17.072.353.107.537.102.268.008.532-.073.75-.23.24-.192.416-.45.507-.744zm-2.623-1.291h2.634c-.008-.322-.112-.633-.3-.894-.118-.148-.27-.267-.441-.347-.172-.08-.36-.12-.55-.114-.172-.005-.342.026-.502.09-.16.063-.305.158-.426.279-.258.264-.407.616-.415.986zM60.041 37.773h.802v1.96h2.213v-1.96h.802v4.716h-.801v-2.092h-2.214v2.092h-.802v-4.716zM65.063 36.897v-.916h.801v.916h-.801zm0 5.587v-4.716h.801v4.716h-.801zM71.358 42.483v-5.765h-2.144v-.767h5.16v.767h-2.128v5.765h-.888zM74.374 42.483v-.91h.91v.91h-.91zM79.314 35.98h4.21v.767h-3.35v5.765h-.86V35.98zM83.24 42.483v-.91h.911v.91h-.91zM88.181 35.98h.86v5.766h2.161V35.98h.86v5.766h2.161V35.98h.86v6.51h-6.92l.018-6.51zM99.625 40.967l.825.104c-.106.446-.36.842-.721 1.124-.454.298-.995.436-1.537.394-.541-.043-1.053-.265-1.455-.63-.428-.494-.646-1.136-.605-1.788-.042-.67.177-1.331.61-1.844.203-.218.45-.389.725-.502.274-.113.57-.166.867-.156.289-.01.576.043.843.155.266.111.506.279.702.491.418.507.624 1.155.576 1.81v.214h-3.516c-.002.435.154.857.438 1.187.126.135.279.242.448.313.17.072.353.107.538.102.268.008.531-.073.75-.23.241-.191.42-.45.512-.744zm-2.623-1.291h2.635c-.004-.325-.106-.64-.294-.906-.119-.148-.27-.267-.442-.347-.172-.08-.36-.119-.55-.114-.171-.004-.342.026-.502.09-.16.063-.304.158-.426.28-.263.265-.414.622-.42.997zM101.458 37.774h1.845c.341-.013.681.026 1.009.115.229.078.43.223.577.415.158.207.241.461.236.721.003.2-.044.4-.138.577-.101.174-.246.32-.421.42.233.071.435.217.576.416.149.21.226.463.22.72-.001.19-.044.379-.127.55-.083.172-.203.323-.352.442-.376.24-.818.352-1.263.323h-2.127l-.035-4.699zm.802 1.983h.853c.236.01.472-.007.703-.052.132-.038.249-.111.341-.213.096-.106.149-.243.149-.386.01-.103-.009-.206-.056-.298s-.12-.169-.209-.221c-.286-.118-.596-.167-.905-.144h-.876v1.314zm0 2.076h1.049c.32.027.641-.027.934-.156.087-.06.157-.141.203-.236.047-.095.068-.2.062-.306.001-.152-.05-.3-.144-.42-.093-.125-.228-.212-.38-.243-.25-.041-.503-.059-.756-.052h-.968v1.413zM105.581 37.773h.801v.894c-.009.28.014.561.069.836.054.185.17.346.329.456.192.133.423.2.657.19.395-.022.783-.104 1.153-.242v-2.134h.802v4.716h-.802v-1.902c-.445.146-.909.224-1.378.23-.335.007-.664-.087-.945-.27-.261-.154-.463-.39-.577-.67-.099-.279-.148-.573-.144-.87l.035-1.234zM113.836 40.967l.825.104c-.105.446-.36.842-.721 1.124-.454.298-.995.436-1.536.394-.542-.043-1.054-.265-1.456-.63-.428-.494-.646-1.136-.605-1.788-.042-.67.177-1.331.611-1.844.203-.218.45-.389.724-.502.275-.113.57-.166.867-.156.289-.01.576.043.843.155.267.111.506.279.702.491.418.507.624 1.155.577 1.81v.214h-3.517c-.002.435.154.857.438 1.187.126.135.279.242.449.313.169.072.353.107.537.102.268.008.532-.073.749-.23.242-.191.421-.45.513-.744zm-2.623-1.291h2.635c-.008-.322-.112-.633-.3-.894-.118-.148-.269-.267-.441-.347-.173-.08-.361-.12-.55-.114-.172-.005-.343.026-.502.09-.16.063-.305.158-.427.279-.258.264-.406.616-.415.986zM115.67 37.773h.801v1.96h2.214v-1.96h.801v4.716h-.801v-2.092h-2.214v2.092h-.801v-4.716zM120.674 37.775h.801v2.035c.191.02.382-.03.536-.144.193-.26.344-.548.45-.853.096-.26.224-.509.381-.738.085-.111.202-.195.334-.242.2-.05.405-.072.611-.064h.161v.663h-.219c-.141-.02-.285.013-.403.093-.121.178-.216.372-.283.576-.079.229-.192.444-.334.64-.131.14-.29.25-.467.323.444.182.804.523 1.009.957l.876 1.458h-.876l-.848-1.452c-.114-.22-.269-.415-.455-.577-.137-.095-.301-.143-.467-.138v2.179h-.807v-4.716zM127.944 41.9c-.252.225-.541.404-.853.531-.282.105-.581.158-.882.156-.432.027-.857-.11-1.194-.38-.135-.122-.243-.272-.314-.439-.072-.167-.106-.348-.101-.53 0-.215.052-.427.153-.617.1-.19.246-.352.424-.473.176-.117.371-.205.576-.26.234-.055.471-.095.709-.12.483-.045.96-.138 1.424-.277v-.208c.013-.123 0-.248-.039-.367-.038-.118-.102-.227-.186-.319-.26-.198-.584-.295-.91-.27-.291-.022-.581.046-.831.196-.208.18-.348.426-.397.697l-.813-.104c.053-.294.173-.572.351-.813.186-.22.43-.384.704-.472.345-.118.708-.174 1.072-.168.333-.01.665.039.98.145.221.065.42.189.577.357.125.158.21.344.248.542.033.244.047.491.04.738V40.5c-.012.471.005.943.052 1.412.033.203.101.398.202.577h-.836c-.087-.185-.14-.384-.156-.588zm-.069-1.78c-.422.149-.859.25-1.303.3-.238.025-.472.08-.698.16-.129.053-.24.144-.317.26-.091.142-.128.313-.103.48.024.167.108.32.236.431.202.155.454.231.709.213.286.005.568-.064.819-.201.234-.13.42-.333.53-.577.098-.255.142-.528.127-.801v-.266zM35.925 14.557s1.153-.576 0-2.306c-.51-.816-1.089-1.587-1.73-2.306 0 0 3.339.513 2.307 0-2.306-1.153-2.883-3.46-4.036-4.612-1.153-1.153-1.73-1.153-2.306-1.73-.576-.576 2.306-.576 2.306-.576-1.037-.67-2.227-1.067-3.459-1.153-1.73 0-2.883 1.153-2.883.576 0-.576 0-2.306-2.306-2.306s-8.647-.576-10.954.577C10.558 1.874 7.676 4.18 7.676 8.215c0 0-1.73 0-2.306.577-.76.612-1.356 1.405-1.73 2.306-.576 1.73 0 2.646 0 3.46 0 2.305-.836 1.827-1.153 2.305-1.153 1.73-2.882.577-1.73 1.73.276.325.647.556 1.06.66.414.103.85.074 1.247-.084-.03.8-.227 1.586-.577 2.306-.576 1.153-2.306 1.153-2.306 1.153 0 1.154 1.153 2.306 1.73 2.883.576.577 2.306.577 1.153 2.306-.715 1.073 0 1.153 0 1.153s17.872 13.837 18.448 14.413c.577.577 1.003 1.73 0 1.153C5.37 35.312 1.334 30.838 1.334 29.546c0-1.729 1.153-1.152 1.153-1.152s-1.58-1.459-2.306 0c-.576 1.153.392 2.173.577 2.882.213.836-.387 2.687 0 3.46.576 1.152 1.153 2.306 8.647 6.918 7.495 4.612 15.486 7.16 16.143 5.188.577-1.73-.577-5.765-1.73-5.765-2.882 0-11.53-4.612-13.836-8.648-.905-1.585 0-2.882 1.153-2.306 1.153.577 2.883.577 2.306-1.153s-2.052-5.079-2.306-6.341c-.577-2.883 4.036-4.613 2.883-5.19-1.154-.576-3.46 2.883-3.46 2.307 0-.577 1.153-2.883 2.306-3.46 1.153-.576 2.307-2.305 2.307-3.458 0-1.822-2.306-1.015-2.306-2.306 0-1.154 1.59-1.73 2.882-1.73 1.73 0 6.918.576 8.071 2.306 1.153 1.73 2.306 2.306 2.883 1.73.576-.577-2.306-3.927 0-3.46 2.883.577 4.612 1.672 4.612 4.613 0 3.459 1.274 3.505.577 5.188-.196.479-.577.577-1.73 1.153-1.309.658-3.782 1.92-2.883 4.613.577 1.73 2.883 5.188.577 5.188-1.291 0-4.036-1.73-4.036-.576 0 1.153 3.46 1.153 3.46 2.882 0 1.73-.577 1.153-.577 1.153s-5.765-1.153-5.765 0 2.306.577 2.882.577c1.153 0 2.883-.139 2.883 1.153 0 0 0 .576-1.153.576s-1.73 0-1.73.577c0 .576 1.153 0 1.73 1.153 1.153 2.306-1.73 3.46-1.73 3.46.624.002 1.232-.2 1.73-.577 1.73-1.73 5.189-8.648 5.189-10.954 0-2.306.248-3.258 1.153-4.613 1.153-1.729 1.66-1.32 2.882-1.729 1.73-.576-.576-5.189.577-5.189h1.153s-1.73-2.306-1.73-3.459 1.153 0 1.153 0z"/>
    <path fill="#fff" d="M21.512 25.51c.577.577 1.73-.576 2.883-1.73 1.153-1.152 2.883-2.305 2.306-3.458-.576-1.153-3.46-.577-4.036-1.153-.576-.577-.576-1.153-1.73-1.153-.799.035-1.583.231-2.305.576-1.032 1.032-2.306 1.73.576 2.306 2.883.577 4.036 1.153 3.46 2.883-.128.38-1.73 1.153-1.154 1.73z"/>
    <path fill="#fff" d="M20.36 24.358c.576 0 1.152-.577 1.729-1.154.576-.576-1.153-.576-1.73-.576-.576 0-1.562-.398-1.73 0-.31.755 1.154 1.73 1.73 1.73z"/>
</svg>
