<svg xmlns="http://www.w3.org/2000/svg" width="478" height="288" fill="none" viewBox="0 0 478 288">
    <path fill="#B49864" d="M191.654 246.786c0-2.232.09-4.501 0-6.698s-.359-4.664-.719-6.969c-.09-.705-.363-1.373-.792-1.939-.428-.566-.998-1.009-1.65-1.285-1.659-.692-3.088-1.84-4.122-3.313-1.258-1.801-2.865-3.323-4.176-5.078-1.732-2.204-3.324-4.513-4.769-6.915-1.365-2.395-3.098-4.502-4.661-6.726-1.67-2.386-3.305-4.799-4.984-7.203-.808-1.144-1.653-2.269-2.497-3.386-2.22-2.963-4.179-6.114-5.855-9.418-1.291-2.569-2.347-5.251-3.152-8.013-1.05-3.56-1.433-7.284-1.132-10.985.296-2.476 1.119-4.859 2.416-6.987 1.23-2.241 2.783-4.289 4.607-6.077 1.497-1.394 3.093-2.677 4.778-3.836 3.287-2.386 6.582-4.763 9.941-7.032 2.111-1.422 4.374-2.62 6.538-3.962 1.137-.683 2.232-1.435 3.278-2.25.164-.179.288-.389.366-.619.077-.229.105-.473.083-.714-.126-1.649-.36-3.289-.701-4.907-.793-3.543-1.351-7.134-1.67-10.751-.377-3.826-.835-7.644-1.194-11.471-.171-1.8-.135-3.664-.297-5.492-.281-4.414-.152-8.845.386-13.236.01-1.04.073-2.08.189-3.115.458-2.242 1.069-4.448 1.599-6.672.26-1.08.404-2.188.745-3.241.727-2.215 1.482-4.43 2.353-6.6.511-1.224 1.153-2.389 1.913-3.475.899-1.346 1.905-2.617 3.008-3.8 1.24-1.297 2.694-2.413 3.988-3.601 3.856-3.4 8.163-6.247 12.797-8.464 4.086-1.99 8.37-3.602 13.067-3.692 1.779-.138 3.549-.384 5.298-.738.74-.137 1.486-.237 2.236-.297 2.434-.1 4.868-.252 7.302-.19 2.433.064 4.786.352 7.184.604 2.856.306 5.712.612 8.541 1.044 1.449.248 2.875.612 4.265 1.09 2.061.62 4.085 1.356 6.062 2.206 1.672.828 3.283 1.773 4.823 2.827 2.11 1.35 4.23 2.701 6.286 4.205 1.179.973 2.306 2.006 3.377 3.097.21.245.451.46.718.64 1.191.675 2.204 1.626 2.955 2.773.458.603.898 1.242 1.365 1.8 1.521 1.915 2.702 4.078 3.493 6.393.877 2.32 1.594 4.696 2.147 7.113.404 1.603 1.015 3.16 1.347 4.772.353 1.76.599 3.54.736 5.33.252 3.035.485 6.087.539 9.13 0 1.927-.242 3.872-.395 5.799 0 .432-.099.9-.126 1.287-.143 2.296-.233 4.592-.44 6.888-.305 3.368-.583 6.744-1.068 10.085-.485 3.34-1.222 6.572-1.797 9.859-.222 1.126-.369 2.266-.44 3.412.023.223.092.438.203.632.112.194.263.363.444.494 1.32.9 2.694 1.8 4.059 2.629 5.999 3.601 11.675 7.698 17.342 11.858 2.755 2.131 5.143 4.701 7.067 7.608 2.673 3.862 3.739 8.616 2.973 13.254-.117 1.395-.306 2.784-.566 4.16-.42 1.709-.939 3.393-1.553 5.042-1.472 3.91-3.43 7.619-5.829 11.038-3.125 4.565-6.349 9.067-9.546 13.587-.602.846-1.365 1.585-1.94 2.449-1.078 1.612-2.092 3.269-3.107 4.916-1.867 3.033-4.001 5.893-6.376 8.545-.966 1.101-1.865 2.259-2.695 3.466-.831 1.141-1.986 2.003-3.313 2.476-.7.25-1.304.71-1.732 1.318-.428.607-.657 1.333-.657 2.077-.324 4.268-.701 8.526-.979 12.794-.117 1.801 0 3.602-.108 5.403.003 1.21-.255 2.406-.757 3.507-.503 1.1-1.237 2.079-2.153 2.867-.346.29-.752.498-1.188.611-.437.112-.893.125-1.335.038l-5.613-.955c-.73-.075-1.4-.436-1.866-1.004-.466-.568-.689-1.298-.622-2.03 0-2.62.189-5.249.225-7.869 0-2.299-.03-4.595-.09-6.888-.054-1.468-.269-2.936-.431-4.403.01-.36-.071-.716-.234-1.036-.252-.305-.6-.515-.987-.594-.485-.09-.62.315-.674.765-.198 1.711-.404 3.431-.665 5.133-.179 1.197-.44 1.431-1.643 1.656-1.203.225-2.326.423-3.502.604-.494.063-.995.025-1.472-.112-.478-.138-.923-.372-1.308-.688-.384-.316-.7-.708-.928-1.151-.228-.443-.363-.929-.396-1.426v-2.917c-.045-1.963-.369-2.251-2.291-2.215-3.233.063-6.475.36-9.681.117-3.361-.195-6.73-.216-10.094-.063-2.353.063-4.634-.243-6.951-.405-2.317-.162-4.49-.063-6.762 0-.835 0-.988.288-.898 1.224.379 1.874.43 3.799.152 5.691-.022.324-.115.64-.271.925-.157.285-.373.533-.635.726-.261.192-.561.326-.879.391-.318.064-.647.059-.963-.016-1.14-.145-2.263-.442-3.403-.55-.633-.046-1.234-.3-1.708-.724-.474-.423-.796-.991-.915-1.617-.511-1.8-1.284-3.529-.763-5.483.108-.396.198-.981-.458-1.153-.655-.171-1.087.082-1.365.856-.111.265-.187.543-.224.828-.279 4.502-1.554 8.842-1.213 13.398.087 2.555.03 5.113-.17 7.662-.089 1.417-.653 2.762-1.599 3.818-.296.298-.687.483-1.105.522-.68.028-1.362.001-2.038-.081-1.101-.156-2.211-.241-3.323-.252-3.152.18-4.49-2.134-4.652-4.754-.162-2.62 0-5.258 0-7.887l.072-.019zm35.994-75.785v-3.889c-.061-2.206.529-4.38 1.697-6.249.297-.441.584-.756 1.123-.378s.673.72.278 1.269c-1.164 1.671-1.739 3.683-1.634 5.718 0 1.801.072 3.601 0 5.402-.062.539.065 1.084.36 1.539.295.455.739.793 1.256.955.957.327 1.799.924 2.425 1.72.259.297.595.519.97.639 1.795.646 3.7.928 5.604.828.503.053 1.008-.065 1.436-.334.428-.27.754-.675.926-1.151.197-.547.542-1.027.995-1.39.454-.362.998-.592 1.573-.663.386-.063.773-.171 1.159-.27 1.419-.351 1.877-.801 1.796-2.242-.09-2.296-.279-4.592-.521-6.879-.207-1.927-.557-3.836-.799-5.753 0-.271.224-.586.35-.901.323.171.754.261.898.531.17.354.259.742.26 1.135.063.495.072 1.008.135 1.503.422 3.206.898 6.402 1.257 9.626.028 1.221-.059 2.441-.26 3.646-.072.765-.566 1.045-1.266 1.027-.318-.052-.639-.086-.961-.099-.777.024-1.549.139-2.299.342-.342.131-.633.369-.828.679-.196.31-.287.675-.259 1.04-.029.378.061.755.257 1.078.197.324.49.577.839.723.848.311 1.774.339 2.64.081.979-.189 1.23 0 1.419.901.323 1.674 3.017 2.863 4.49 1.935.255-.191.463-.437.611-.72.215-.369.359-.783.566-1.161.53-.982.898-1.063 1.796-.37.489.42 1.089.687 1.727.769.639.082 1.287-.026 1.865-.309.548-.237 1.002-.649 1.292-1.172.289-.523.397-1.127.307-1.719-.126-.972-.773-1.458-2.201-1.647-1.428-.189-1.796-.82-1.329-2.242.416-.994.647-2.056.683-3.134-.153-1.854-.453-3.694-.898-5.501-.279-1.215-.835-2.368-1.186-3.601-.09-.316 0-.955.225-1.027.393-.098.809-.036 1.158.171.225.126.333.531.413.829.324 1.251.629 2.512.898 3.772.584 2.449 1.222 4.871.611 7.437-.305 1.288.27 1.801 1.608 1.693.285-.034.567-.088.844-.162l4.311-.954c.565-.127 1.203-.135 1.311.54.107.675-.548.702-1.042.828-.596.131-1.181.306-1.751.522-1.24.514-1.338 1.261-.324 2.17 1.994 1.801 2.847 5.583 1.608 7.942-.948 1.693-1.985 3.334-3.107 4.916-1.405 2.365-3.418 4.309-5.829 5.627-.217.126-.419.277-.601.45-3.08 2.549-5.757 5.552-7.939 8.905-1.135 1.758-1.953 3.703-2.416 5.745-.475 2.586-.575 5.227-.296 7.842-.025.614.076 1.227.296 1.801.951 2.117 2.566 3.865 4.598 4.979.272.178.579.296.9.347.321.051.649.033.962-.052.314-.085.606-.235.858-.441.252-.206.457-.463.603-.755.423-.692.681-1.473.754-2.282.073-.809-.04-1.624-.332-2.382-.135-.486-.395-.9-.485-1.431-.618-3.746-.247-7.59 1.078-11.147.2-.539.469-1.05.799-1.522 2.549-3.626 5.753-6.741 9.447-9.183 2.515-1.61 4.723-3.656 6.52-6.042 1.46-2.272 2.59-4.739 3.359-7.329.599-1.774 1.109-3.577 1.527-5.402.44-1.918.745-3.872 1.077-5.817.156-.773.235-1.561.234-2.35-.099-2.872-.189-5.753-.422-8.617-.18-2.251-.485-4.502-.844-6.725-.449-2.801-1.015-5.583-1.536-8.365-.071-.353-.161-.701-.269-1.044-.252-.829-.503-1.648-.764-2.477-.826-2.647-1.49-5.348-2.505-7.914-1.796-4.61-3.88-9.13-5.793-13.713-.943-2.251-1.868-4.502-2.649-6.834-.097-.454-.348-.86-.709-1.151-.362-.29-.812-.446-1.276-.442-.535-.024-1.064-.136-1.562-.333-.173-.048-.321-.158-.418-.308-.097-.151-.135-.332-.107-.509.028-.177.119-.337.257-.451.139-.113.314-.172.492-.164.461.009.921.057 1.374.144.26-.019.516-.07.764-.153-.099-.261-.126-.585-.306-.756-.076-.101-.172-.185-.282-.246-.11-.061-.231-.098-.356-.109-.126-.011-.252.004-.371.045-.119.041-.228.107-.32.193-.236.205-.532.328-.844.351-3.332.072-6.664.117-9.996.18-.835 0-1.383-.27-1.418-.82-.036-.549.493-.9 1.347-.9h.107c2.404.204 4.825.052 7.185-.45.778-.093 1.563-.111 2.344-.054h1.616c.539 0 .611-.243.575-.711-.108-1.153-.539-1.549-1.688-1.378-1.401.314-2.848.36-4.266.135-.314-.072-.575-.405-.898-.612.227-.291.493-.548.79-.766.216-.117.557 0 .844 0l2.021-.081c.597-.055 1.197-.073 1.796-.054.665.054.952-.117.826-.828-.509-2.972-.668-5.994-.476-9.004.135-2.143 0-4.277.234-6.438.312-2.327.156-4.693-.458-6.96-.377-1.314-.898-1.575-2.021-.846-2.55 1.666-5.478 2.701-7.795 4.763-.309.278-.679.48-1.079.591-.401.11-.821.128-1.229.048-2.722-.493-5.498-.62-8.253-.378-5.422.324-10.762 1.481-15.833 3.43-.31.138-.651.19-.987.15-.336-.04-.656-.169-.926-.374-1.293-.847-2.595-1.684-3.96-2.395-.888-.464-1.833-.806-2.811-1.018-.304-.103-.627-.136-.945-.097-.319.038-.624.148-.895.321-.27.173-.499.404-.668.677-.17.273-.277.58-.312.9-.181 1.418-.163 2.855.054 4.268.269 1.873.898 3.7 1.167 5.573.169 1.495.247 2.998.234 4.502.045 1.801.054 3.512.063 5.267 0 .595.359.748.844.703.817-.072 1.643-.189 2.461-.271.387-.076.783-.097 1.176-.063.324.115.628.282.898.496-.189.315-.305.765-.584.9-.424.175-.879.267-1.338.27-.853.09-1.724.072-2.559.234-.18.026-.353.089-.509.183-.155.095-.29.219-.396.367-.107.148-.183.316-.223.494-.04.177-.045.361-.013.541 0 .54.279.747.844.684.846-.112 1.698-.16 2.551-.144 1.571.041 3.135-.222 4.607-.774.958-.311 1.945-.526 2.946-.639.166.005.33.048.478.126.147.078.276.189.375.324.081.117-.189.558-.377.783-.181.174-.409.29-.656.333l-9.259 2.044c-.562.114-1.117.261-1.661.441-.114.033-.219.091-.308.168-.089.078-.16.174-.209.281-.049.108-.073.225-.073.344.001.118.028.235.078.342.063.162.628.225.898.153.557-.126 1.068-.414 1.616-.576.289-.112.609-.112.898 0 .225.144.485.612.404.765-.179.338-.476.597-.835.729-.997.306-2.038.441-3.017.793-.471.215-.87.562-1.15.999-.237.405-.407.846-.503 1.306-.754 2.548-1.499 5.105-2.254 7.662-.083.318-.213.621-.386.9-1.356 2.044-1.679 4.412-2.173 6.735-.575 2.701-1.123 5.402-1.707 8.103-.242 1.117-.637 2.215-.772 3.341-.422 3.529-1.149 7.041-.952 10.633.081 1.504.332 3.008.395 4.502.15 3.988 1.513 7.833 3.907 11.021.861 1.184 1.998 2.138 3.311 2.782 1.313.643 2.763.955 4.224.91 1.948 0 2.945-1.162 2.784-3.134-.112-.854-.166-1.714-.162-2.575.108-1.972.287-3.944.467-5.915.197-2.251.997-4.421.898-6.726.022-.578.143-1.148.359-1.684.063-.198.359-.513.449-.486.252.096.461.278.593.513.062.239.062.49 0 .729-.054.532-.126 1.063-.189 1.594-.167 1.465-.329 2.926-.485 4.385-.197 1.801-.521 3.601-.556 5.348-.045 2.332.116 4.673.233 7.005.057.378-.031.764-.246 1.079-.214.316-.541.538-.912.623-.584.189-1.168.351-1.734.576-1.437.585-1.931 2.431-.898 3.332.544.467 1.231.733 1.946.754.716.021 1.417-.204 1.988-.637.405-.321.911-.487 1.428-.469.655.108.754.793.745 1.396-.033.308.02.62.153.899.134.28.342.517.601.686.387.279.841.448 1.315.489.475.041.951-.047 1.38-.255.393-.175.712-.485.896-.875.185-.39.224-.834.109-1.25-.161-.991.458-1.396 1.401-1.027.467.181.898.451 1.374.622.643.18 1.329.115 1.926-.183s1.063-.807 1.307-1.429c.094-.306.121-.629.079-.947-.042-.318-.152-.623-.323-.894-.17-.271-.397-.502-.665-.677-.268-.175-.57-.289-.887-.336-.392-.046-.777-.137-1.149-.27-1.132-.315-1.356-.568-1.374-1.729-.135-1.333-.117-2.701-.126-4.07h.009zm58.796 52.97l.287.09c.063 0 .153 0 .189-.072 2.083-2.701 4.23-5.357 6.232-8.104 2.003-2.746 3.673-5.402 5.514-8.103.449-.657.899-1.27 1.401-1.918 2.398-3.367 4.823-6.717 7.185-10.129 1.587-2.136 3.005-4.394 4.239-6.753 1.494-3.198 2.775-6.491 3.834-9.859 1.016-3.577 1.224-7.335.611-11.003-.069-.857-.25-1.702-.539-2.512-1.697-4.151-4.492-7.759-8.082-10.435-3.081-2.296-6.287-4.502-9.331-6.771-2.261-1.759-4.664-3.325-7.185-4.682-1.85-.946-3.682-1.945-5.55-2.846-.394-.176-.726-.467-.955-.834-.229-.367-.343-.795-.329-1.227-.036-.469-.02-.94.045-1.405.194-1.425.47-2.838.826-4.232 1.24-4.196 1.563-8.544 2.165-12.848.278-1.99.395-4.007.556-6.015.333-4.052.746-8.103.899-12.146.11-3.056.005-6.116-.315-9.157-.155-2.583-.552-5.145-1.185-7.653-.449-1.558-.952-3.097-1.356-4.664-.493-2.399-1.255-4.734-2.272-6.96-.234-.441-.306-.964-.494-1.423-.196-.54-.44-1.06-.728-1.557-2.313-3.4-5.105-6.444-8.289-9.04-3.179-2.791-6.879-4.817-10.435-7.05-.905-.513-1.855-.941-2.838-1.279-1.338-.522-2.694-1.044-4.05-1.476-1.285-.441-2.604-.775-3.943-1-3.08-.432-6.187-.73-9.277-1.09-1.058-.189-2.125-.324-3.197-.404-6.062-.081-12.124-.36-18.141.783-1.277.174-2.563.276-3.852.306-2.021.153-3.754 1.161-5.604 1.8-2.704.955-5.301 2.19-7.75 3.683-4.204 2.759-8.194 5.832-11.936 9.193-.257.2-.483.437-.673.703-1.581 2.449-3.979 4.42-4.419 7.545-1.85 3.862-2.469 8.103-3.816 12.128-.503 1.878-.742 3.818-.71 5.762-.143 3.197-.566 6.384-.539 9.58 0 3.773.413 7.537.638 11.3v.108c.485 3.989.988 7.987 1.446 11.975.556 4.205 1.335 8.377 2.335 12.498.449 1.99 0 2.872-1.742 3.871-3.593 2.017-7.185 3.962-10.606 6.186-3.422 2.224-6.637 4.799-9.969 7.203-3.162 2.209-5.806 5.082-7.75 8.419-.898 1.638-1.94 3.331-1.976 5.303-.048 2.437-.015 4.874.099 7.311.015 1.222.208 2.436.575 3.602 1.212 3.385 2.541 6.725 3.897 10.048.412.918.924 1.788 1.527 2.593 1.796 2.62 3.718 5.204 5.559 7.815 2.532 3.602 5.065 7.203 7.544 10.805 1.338 1.954 2.478 4.061 3.879 5.969 1.931 2.638 4.032 5.151 6.062 7.717.165.145.346.272.539.378-.422-1.468-.754-2.701-1.168-3.989-.745-2.251-1.598-4.502-2.308-6.726-.79-2.539-1.472-5.114-2.191-7.68-.215-.765-.332-1.549-.575-2.305-.538-1.711-.386-3.602-1.338-5.195-.548-.901-1.068-1.882-1.688-2.755-1.042-1.335-1.872-2.824-2.461-4.412-.199-.625-.461-1.229-.781-1.801-2.229-4.093-3.399-8.681-3.404-13.344 0-1.008-.054-2.017 0-3.025.007-.86.133-1.715.378-2.539.552-1.782 1.286-3.502 2.191-5.132 1.13-1.834 2.485-3.519 4.032-5.015 1.617-1.363 3.314-2.626 5.083-3.782 2.075-1.549 4.122-3.124 6.179-4.682.112-.092.232-.173.359-.243.62-.306 1.078-.189 1.293.45.295.85.529 1.719.701 2.602.413 2.188.727 4.394 1.158 6.582.323 1.657.898 3.268 1.141 4.925.395 2.413.628 4.844.898 7.275.055.356.01.721-.131 1.052-.142.331-.373.616-.669.821-1.41 1.152-2.766 2.386-4.122 3.602-4.192 3.725-7.217 8.588-8.711 14-.171.522-.237 1.073-.192 1.621.045.547.199 1.08.453 1.567l.898-.901c1.077-1.143 2.038-2.422 3.637-2.935 1.278-.557 2.607-.985 3.969-1.278 2.416-.252 4.877-.198 7.31-.234 6.712-.084 13.426-.154 20.144-.208l21.975-.216c4.491 0 8.909 0 13.363-.063.539 0 1.078-.072 1.608-.099 1.464-.081 2.937-.216 4.4-.225 1.321 0 2.695.063 3.979.171.681.101 1.376-.02 1.983-.344.608-.324 1.096-.834 1.394-1.456.134-.253.323-.478.467-.73.653-1.04 1.05-2.221 1.156-3.446.106-1.225-.081-2.457-.546-3.595-.099-.315-.283-.598-.532-.815-.249-.218-.552-.362-.878-.418-.081.189-.161.342-.206.504-.17.799-.579 1.526-1.173 2.085-.594.558-1.344.921-2.15 1.039-.53.081-1.06.225-1.59.261-1.554.003-3.07.48-4.346 1.369-.209.14-.436.252-.674.333-1.473.603-4.275 0-5.137-1.278-.26-.406-.622-.736-1.049-.959-.426-.223-.904-.33-1.384-.311-1.049-.029-2.058-.409-2.865-1.08-.384-.282-.82-.484-1.282-.596-.463-.111-.943-.129-1.412-.053-1.572.135-3.144.297-4.715.351-.519-.014-1.035.081-1.514.28-.48.198-.913.496-1.27.873-.505.566-1.124 1.019-1.816 1.33-.692.31-1.441.47-2.199.471-.317-.009-.632.07-.908.229-.275.159-.502.391-.654.671-.331.499-.786.902-1.32 1.171-1.302.648-3.853 0-4.922-1.261-.207-.24-.466-.431-.756-.559-.291-.128-.606-.189-.923-.179-1.14-.047-2.273-.198-3.386-.451-.518-.113-.994-.371-1.372-.743-.378-.373-.643-.846-.765-1.363-.35-1.657-1.518-2.386-2.784-3.206-1.266-.819-2.164-1.756-3.251-2.62-.365-.324-.785-.58-1.239-.756-.617-.194-1.258-.294-1.904-.297-1.574-.113-3.106-.564-4.491-1.324-.549-.234-1.03-.605-1.396-1.078-.366-.473-.606-1.031-.696-1.623-.189-.954-.395-1.9-.566-2.863-.557-3.296-1.122-6.591-1.643-9.904-.557-3.557-1.204-7.104-1.563-10.679-.512-5.114-.377-10.273-1.158-15.37-.333-2.16-.386-4.366-.566-6.554-.234-2.701-.458-5.448-.719-8.167-.17-1.801-.431-3.601-.628-5.357-.288-2.566-.656-5.132-.826-7.707-.207-3.458-.333-6.88-.414-10.355-.1-1.437-.073-2.88.081-4.313.413-2.809.961-5.6 1.572-8.364.269-1.487.734-2.931 1.383-4.295.956-1.849 2.109-3.587 3.439-5.186 1.482-1.738 2.695-3.71 4.581-5.123 2.539-1.949 5.29-3.604 8.199-4.934 4.373-1.954 8.774-3.8 13.543-4.502 2.02-.306 4.077-.424 6.052-.9 2.247-.507 4.58-.486 6.817.062.553.16 1.133.213 1.706.153 3.035-.558 6.026.054 8.981.477 2.692.423 5.345 1.07 7.929 1.936 3.043.963 6.026 2.102 8.936 3.413 2.222 1.09 4.365 2.335 6.412 3.727 1.003.651 1.91 1.44 2.694 2.341 1.707 1.945 3.305 3.98 4.958 5.97 1.259 1.485 2.151 3.246 2.604 5.141.413 1.747.898 3.485 1.221 5.25.441 2.394.764 4.816 1.123 7.202.016.144.016.289 0 .433-.108 1.503-.269 3.007-.323 4.501-.117 2.909-.153 5.826-.279 8.734 0 .901-.287 1.801-.395 2.656-.143 1.144-.242 2.287-.359 3.431-.314 3.079-.665 6.149-.943 9.229-.216 2.323-.314 4.664-.521 6.987-.242 2.701-.557 5.402-.817 8.157-.135 1.432-.216 2.872-.314 4.304-.234 3.151-.485 6.303-.674 9.463-.023.753.05 1.507.216 2.242.314 1.585.799 3.142 1.032 4.736.472 3.129.772 6.283.898 9.445.108 3.214.405 6.393-.637 9.517-.05.246-.08.496-.09.747-.208 1.891-.529 3.767-.961 5.619-.673 2.341-1.652 4.592-2.523 6.879-.602 1.575-.378 1.981 1.302 2.287.178.032.358.05.539.054 2.011.054 4.023.072 6.026.171 3.003.177 5.825 1.501 7.884 3.7.494.496.961 1.009 1.437 1.513l.225-.117c0-.306.063-.612.108-.9.088-1.478-.222-2.952-.898-4.268-.494-1.563-1.144-3.071-1.94-4.502-1.551-2.203-3.237-4.308-5.047-6.303-1.032-1.052-2.117-2.05-3.251-2.989-.545-.447-.972-1.022-1.241-1.674-.27-.652-.374-1.36-.304-2.063.638-5.789 1.275-11.579 1.967-17.368.165-1.207.444-2.395.835-3.548.332-1.026.961-1.134 1.796-.486 1.455 1.108 2.91 2.206 4.356 3.323 2.308 1.8 4.741 3.403 6.879 5.402 3.21 2.762 5.433 6.498 6.331 10.642.41 1.716.495 3.494.252 5.241-.135.774-.189 1.566-.27 2.359-.148 2.444-.697 4.847-1.625 7.113-.747 1.555-1.407 3.151-1.976 4.781-.69 1.972-1.731 3.802-3.071 5.402-1.177 1.463-1.973 3.195-2.317 5.042-.449 2.251-1.087 4.502-1.662 6.69-.355 1.055-.655 2.128-.898 3.214-.485 3.242-1.796 6.213-2.901 9.247-.503 1.126-.799 2.332-1.158 3.521h.009zm-25.631-32.162l-.161-.261h-1.276c-4.804.126-9.609.27-14.413.387-1.797 0-3.593 0-5.389.063-2.793.099-5.595.234-8.388.378-1.068.054-2.146.207-3.215.216h-19.155c-.755 0-1.5-.108-2.254-.117-1.967 0-3.934 0-5.901-.063-.79 0-1.571-.189-2.362-.18-3.34 0-6.672.216-10.013.162-1.731-.059-3.437.429-4.876 1.396-.856.526-1.648 1.148-2.362 1.855-.988 1.062-1.967 2.134-1.509 3.898.79 2.99 1.329 6.042 2.084 9.004.691 2.755 1.059 5.592 2.182 8.23.58 1.315 1.078 2.665 1.491 4.042.599 2.305 1.653 4.467 3.098 6.357.513.598 1.12 1.109 1.796 1.513 1.768 1.045 3.754 1.661 5.801 1.801 4.033.459 8.038 1.143 12.115.567.5-.017 1 .023 1.491.117 1.931.171 3.853.432 5.784.504 2.37.09 4.741 0 7.112 0h2.587c2.146.117 4.292.324 6.439.378 1.895 0 3.798-.153 5.702-.117 2.793.054 5.586.252 8.379.351 3.512.126 7.005-.351 10.534-.054 3.853.315 7.742.279 11.612.243 2.138 0 4.275-.387 6.412-.54 2.138-.153 3.799-1.179 5.595-2.089 1.755-.787 3.164-2.189 3.961-3.943 1.194-2.801 2.434-5.592 3.439-8.455.836-2.368 1.401-4.835 2.03-7.266.305-1.18.494-2.395.736-3.602.485-2.359 1.015-4.709 1.437-7.077.13-.608.051-1.243-.224-1.8-1.716-2.864-4.086-4.817-7.58-4.952-3.08-.118-6.17-.154-9.259-.235-.499-.02-.995.075-1.452.278-.456.203-.86.508-1.179.893-1.309 1.429-2.749 2.731-4.302 3.89-2.761 1.878-5.338 4.016-7.696 6.383-1.388 1.368-2.483 3.005-3.216 4.812-.734 1.807-1.091 3.745-1.05 5.696v2.161c-.077 1.541.193 3.079.79 4.502.318.809.449 1.68.382 2.547-.067.867-.33 1.708-.768 2.459-.544.919-1.423 1.591-2.452 1.873-1.029.283-2.127.153-3.062-.361-.744-.436-1.461-.917-2.146-1.44-1.038-.721-1.909-1.656-2.555-2.744-.647-1.087-1.052-2.301-1.19-3.559-.294-2.612-.249-5.251.135-7.851.048-.681.183-1.353.404-1.999 2.252-5.363 5.831-10.061 10.399-13.65 1.599-1.206 3.143-2.503 4.688-3.782.287-.246.549-.52.781-.819h.009zm-50.641-73.039c-.476.144-.683.189-.898.27-2.578 1.18-5.155 2.368-7.741 3.53-.348.162-.733.228-1.114.189-.252 0-.458-.369-.683-.577.198-.216.36-.531.611-.639 2.991-1.314 6.017-2.548 8.981-3.907.706-.395 1.319-.939 1.796-1.594.377-.459.215-.901-.485-1.081-1.141-.197-2.315-.033-3.359.469-1.251.432-2.5.876-3.745 1.332-1.509.567-3.008 1.18-4.49 1.711-.288.099-.898 0-.997-.207-.278-.495.045-.901.557-1.072 1.58-.603 3.134-1.26 4.733-1.8 2.451-.82 4.93-1.522 7.382-2.341.457-.162.842-.481 1.086-.901.183-.528.289-1.08.315-1.638-.497-.137-1.012-.198-1.527-.181-2.371.415-4.724.901-7.077 1.378-1.374.279-2.694.594-4.104.9-.113.038-.232.049-.35.033-.117-.016-.229-.059-.328-.125s-.181-.153-.241-.256c-.06-.102-.096-.217-.105-.336-.107-.603.243-.846.782-.9.538-.054.987-.162 1.481-.252 3.242-.631 6.475-1.324 9.726-1.864.464-.031.905-.215 1.254-.522.349-.308.587-.723.677-1.18.135-.521.213-1.055.234-1.594.218-4.249-.252-8.506-1.392-12.605-.401-1.723-.48-3.506-.234-5.258.132-.64.379-1.25.728-1.8.17-.352.458-.64.655-.982.665-1.17 1.078-1.342 2.326-.9.443.146.875.324 1.293.53 1.797.9 3.503 1.801 5.254 2.702.635.333 1.335.525 2.051.563.716.037 1.432-.081 2.098-.347 4.176-1.452 8.53-2.324 12.941-2.593 1.536-.09 3.071-.19 4.598-.261 1.245-.157 2.503-.187 3.754-.09 1.719.231 3.46-.214 4.859-1.243 2.002-1.26 4.086-2.395 6.187-3.502 2.102-1.108 3.422-.469 3.97 1.863.214.886.343 1.79.386 2.701.09 2.188.161 4.376.107 6.555-.044 1.972-.413 3.944-.395 5.916 0 2.548.279 5.087.467 7.626.063.819.369.963 1.24.9h3.852c.753.039 1.502.12 2.245.243 1.985.298 3.97.613 5.946.901.119.003.236.034.342.088.107.054.2.132.273.226.073.095.124.205.149.322.026.116.026.238-.001.354-.108.594-.611.667-1.096.585-.485-.081-.898-.252-1.347-.36-3.224-.74-6.526-1.082-9.834-1.017-1.05 0-1.356.297-1.14 1.332.031.308.163.597.376.82.214.224.495.369.8.414.602.099 1.204.189 1.797.27 2.846.378 5.693.738 8.54 1.135.462.059.913.186 1.338.378.566.27.638.72.144 1.08-.339.223-.749.313-1.15.252-1.365-.261-2.694-.72-4.068-.9-2.056-.297-4.14-.441-6.205-.63-.216 0-.566.081-.629.225-.034.115-.039.238-.014.356s.079.228.158.319c.468.374 1.005.653 1.58.819 1.976.361 3.988.55 5.954.901 1.254.279 2.483.661 3.673 1.143.225.081.279.622.413.955-.298.037-.599.037-.898 0-.763-.171-1.499-.487-2.272-.613-2.227-.369-4.49-.666-6.708-.99-.329-.02-.659-.02-.988 0 .35 1.434.772 2.85 1.266 4.241 1.293 3.079 2.793 6.068 4.059 9.157 1.734 4.222 3.781 8.328 4.76 12.83.34 1.181.754 2.339 1.24 3.467.055-.165.1-.334.134-.505.413-4.94.823-9.88 1.231-14.82l.718-8.707c.18-2.224.287-4.456.548-6.662.575-4.745 1.473-9.463 1.203-14.28-.054-.955.234-1.927.243-2.89.173-2.366.155-4.742-.054-7.105-.503-3.367-1.401-6.69-2.227-10.003-.268-1.005-.68-1.967-1.222-2.854-1.933-3.082-4.285-5.879-6.987-8.31-.716-.659-1.482-1.26-2.29-1.802-3.493-2.413-7.463-3.862-11.351-5.402-4.769-1.918-9.879-2.494-14.917-3.025-.811-.148-1.638-.196-2.461-.144-1.316.161-2.65.112-3.951-.144-1.579-.35-3.212-.384-4.805-.1-.898.19-1.796.127-2.649.253-2.119.306-4.257.603-6.358 1.017-1.331.303-2.644.68-3.934 1.126-.898.279-1.796.612-2.631.954-1.033.414-2.048.9-3.08 1.288-3.178 1.16-6.166 2.79-8.864 4.835-3.176 2.603-5.883 5.734-8.002 9.256-.497.84-.867 1.75-1.095 2.7-.683 2.648-1.392 5.295-1.797 7.987-.598 3.876-.64 7.818-.125 11.705.404 3.818-.09 7.68.754 11.498.426 2.52.693 5.064.799 7.617.351 3.8.656 7.591 1.006 11.39.243 2.701.539 5.402.781 8.05.243 2.647.467 5.402.719 8.166.305 3.296.485 6.609.97 9.904.682 4.502 1.607 9.004 2.416 13.506.511 2.881 1.419 3.845 4.328 4.439.782.162 1.572.252 2.353.369l.135-.27c-.293-.616-.616-1.218-.97-1.801-1.061-1.511-1.745-3.256-1.994-5.087-.47-3.202-.77-6.427-.898-9.661-.012-3.709.422-7.407 1.293-11.012.719-3.196 1.374-6.392 2.129-9.58.356-2.066.881-4.098 1.571-6.077 1.188-2.662 2.135-5.425 2.829-8.257.207-.756.422-1.504.683-2.485zm-33.417 75.911l.305-.072c.081-.445.123-.897.126-1.35-.046-1.337.247-2.663.853-3.854 1.029-2.338 2.318-4.552 3.844-6.6 1.164-1.642 2.504-3.152 3.996-4.502 1.365-1.152 2.56-2.503 3.844-3.754.332-.358.575-.789.709-1.258.135-.469.156-.964.063-1.443-.213-2.758-.627-5.497-1.239-8.194-.593-2.926-1.087-5.861-1.661-8.788-.288-1.467-.593-1.593-1.796-.711-2.371 1.675-4.724 3.386-7.077 5.087-2.196 1.439-4.058 3.334-5.46 5.556-1.329 2.287-2.614 4.655-2.838 7.275-.46 4.349.087 8.746 1.598 12.848 1.051 2.701 2.407 5.294 3.655 7.924.326.631.686 1.244 1.078 1.836zm117.592.378c.251-.459.494-.9.763-1.395 2.694-4.664 4.868-9.526 5.389-15 .251-2.792.682-5.52-.306-8.311-1.256-4.008-3.707-7.534-7.023-10.102-2.694-2.017-5.442-3.989-8.163-5.988-.674-.495-1.123-.36-1.302.486-.225 1.09-.368 2.197-.539 3.305-.26 1.701-.575 3.403-.745 5.123-.315 3.259-.503 6.528-.809 9.787-.067.627.015 1.261.238 1.851.223.59.582 1.119 1.047 1.544 1.086 1.098 2.209 2.16 3.268 3.295 3.038 3.075 5.397 6.756 6.925 10.805.493 1.476.817 3.007 1.248 4.6h.009zM193.36 253.431v.901c.189 1.972 1.177 3.259 2.802 3.457 1.419.18 2.856.261 4.293.306.265.019.531-.016.783-.102s.484-.222.683-.398c.199-.177.361-.392.476-.632.115-.24.182-.501.195-.768.218-2.758.278-5.527.18-8.292-.046-2.413.138-4.825.548-7.203.287-2.386.583-4.772.835-7.203.09-.811-.099-.901-.898-.901-1.071.065-2.145.065-3.215 0-2.102-.207-4.203-.495-6.287-.792-.709-.099-1.032.135-1.014.837.017.703.044 1.513.107 2.26.171 2.188.467 4.367.512 6.555.054 4.007 0 7.996 0 11.975zm85.414-20.429c-.269.063-.475.099-.673.162-2.432.898-5.042 1.207-7.616.9-.568-.088-1.14-.142-1.715-.162-1.176 0-1.509.279-1.446 1.459.126 2.548.368 5.096.476 7.644.081 1.801.063 3.601 0 5.402-.054 1.972-.233 3.944-.278 5.925-.052.474.08.95.37 1.329.289.379.713.632 1.183.706 1.797.198 3.593.306 5.389.351.473.017.941-.11 1.342-.364.4-.253.715-.623.903-1.059.393-.853.639-1.766.727-2.701.225-2.827.315-5.672.476-8.509.072-1.287.153-2.584.261-3.871.161-2.341.377-4.727.592-7.212h.009zm-63.007 4.871h.09c-.099-1.072-.18-2.143-.315-3.206-.001-.198-.042-.395-.121-.577-.079-.182-.195-.346-.339-.481-.145-.136-.316-.241-.502-.308-.187-.067-.385-.096-.582-.083-1.138-.096-2.276-.21-3.413-.342-.979-.108-1.203.072-1.266 1.071-.111 1.654.211 3.308.934 4.799.279.568.759 1.011 1.347 1.243 1.038.263 2.1.426 3.17.486.126.025.257.02.381-.016.124-.035.238-.099.332-.187.095-.088.168-.197.212-.318.045-.121.06-.251.045-.38.036-.549.027-1.125.027-1.692v-.009zm41.31-4.007c-1.401 0-1.589.063-1.616.9-.075 1.221-.075 2.445 0 3.665.117 1.333.898 2.251 2.119 2.08 1.209-.271 2.382-.685 3.494-1.234.17-.063.278-.414.314-.648.171-1.134.35-2.269.458-3.412.108-1.144-.153-1.315-1.275-1.306-1.123.009-2.317-.036-3.494-.036v-.009z"/>
    <path fill="#B49864" d="M239.116 118.943c-2.847-.252-5.676-.396-8.478-.792-1.406-.292-2.778-.726-4.095-1.297-.132-.07-.245-.171-.328-.295-.083-.124-.134-.267-.148-.416.045-.142.124-.271.231-.374.106-.104.237-.18.38-.22.675-.045 1.352.044 1.993.261 1.63.668 3.377.999 5.137.972 1.29.076 2.574.236 3.844.477 1.446.198 1.688 0 1.85-1.431.012-.179.039-.357.081-.532.184-.513.167-1.078-.048-1.579-.215-.502-.612-.903-1.111-1.122-.681-.512-1.285-1.118-1.796-1.8-.084-.084-.151-.184-.197-.294-.045-.109-.069-.227-.069-.346 0-.119.024-.236.069-.346.046-.11.113-.209.197-.293 1.563-1.846 4.67-2.818 6.816-.216.44.54.53.999 0 1.476-.054.046-.098.109-.152.154-1.931 1.287-2.03 3.133-1.617 5.168.117.567.359.747.898.63.914-.145 1.815-.362 2.694-.648 2.47-.982 4.895-2.071 7.338-3.116.134-.054.26-.135.395-.18.27-.099.567-.093.833.017.267.11.482.316.604.578.233.657-.261.9-.728 1.116-.898.369-1.724.702-2.586 1.054-3.175 1.446-6.509 2.513-9.933 3.178-.718.144-1.41.162-2.074.216zM223.042 100.5c-.018-2.33.787-4.585 2.256-6.317 1.47-1.732 3.497-2.816 5.682-3.038.993-.165 2.002-.19 3.001-.073 1.201.258 2.325.823 3.272 1.648.948.825 1.691 1.884 2.164 3.084.474 1.2.663 2.505.552 3.8-.111 1.297-.519 2.544-1.188 3.634-1.456 2.147-3.531 3.731-5.911 4.513-.751.24-1.542.307-2.32.198-.778-.109-1.526-.392-2.193-.831-1.479-.858-2.876-1.868-4.169-3.017-.446-.461-.782-1.027-.981-1.654-.199-.626-.256-1.293-.165-1.947zm8.763-7.299c-1.213.3-2.395.728-3.528 1.278-3.826 2.262-4.009 6.91-.447 9.501l.115.085c3.058 2.165 6.082 1.776 8.407-1.217 1.444-1.873 2.154-4.026.94-6.338-1.089-2.068-2.944-2.944-5.487-3.297v-.012zM241 99.072c0-2.92 2.208-6.714 4.631-7.376 1.866-.564 3.819-.788 5.765-.662 1.05.171 2.04.603 2.875 1.257.835.653 1.489 1.506 1.9 2.479 2.16 4.196-.156 8.392-3.999 10.236-2.984 1.443-5.968 1.443-8.665-.851-1.466-1.311-2.364-3.132-2.507-5.083zm13.416-.922c.004-1.302-.505-2.554-1.419-3.49-.914-.936-2.161-1.482-3.475-1.522-.792-.038-1.583.083-2.326.357-.743.274-1.422.694-1.996 1.236-.574.542-1.03 1.194-1.342 1.915-.312.722-.472 1.5-.471 2.285.009.634.146 1.26.401 1.842.255.582.624 1.108 1.086 1.548.462.439 1.007.784 1.604 1.014.597.229 1.234.34 1.875.324 3.294 0 6.361-2.057 6.111-5.497l-.048-.012z"/>
</svg>
